<svg width="1971" height="200" viewBox="0 0 1971 200" fill="none" xmlns="http://www.w3.org/2000/svg">
<path d="M32.9903 98C14.8038 98 0 112.42 0 130.112V200H66V130.112C66 112.42 51.1962 98 32.9903 98ZM55.4147 196.776H46.1514V174.053C46.1514 167.009 40.2512 161.241 32.9903 161.241C25.7293 161.241 19.8194 166.999 19.8194 174.053V196.776H10.5853V153.137H55.4147V196.776ZM55.4147 149.922H38.5113V124.703C38.5113 121.744 36.0327 119.332 32.9903 119.332C29.9479 119.332 27.4887 121.744 27.4887 124.703V149.922H10.5853V131.842C10.5853 119.796 20.6457 110.018 32.9903 110.018C45.3349 110.018 55.4147 119.796 55.4147 131.842V149.922ZM62.6854 196.776H58.7293V131.833C58.7293 118.009 47.1915 106.794 32.9903 106.794C18.7891 106.794 7.27069 118.018 7.27069 131.833V196.776H3.31458V130.112C3.31458 114.179 16.6215 101.224 33 101.224C49.3785 101.224 62.6951 114.188 62.6951 130.112V196.776H62.6854Z" fill="#D5D9C9"/>
<g clip-path="url(#clip0_1348_14834)">
<path d="M127.525 98C154.282 98 176.039 119.738 176.039 146.825V149.013H169.674V200.06H84.4938V149.013L79.0001 149.036V146.459C79.0001 119.738 100.768 98.0115 127.514 98.0115M127.078 136.231C122.651 136.231 118.935 139.381 118.063 143.55H136.104C135.232 139.369 131.517 136.231 127.078 136.231ZM117.662 132.795C120.288 130.837 123.546 129.68 127.078 129.68C130.61 129.68 133.856 130.837 136.494 132.795L150.119 119.189C143.869 113.989 135.84 110.851 127.078 110.851C118.316 110.851 110.287 113.989 104.048 119.189L117.673 132.795H117.662ZM154.753 123.827L140.829 137.732C141.827 139.495 142.492 141.465 142.733 143.561H162.964C162.288 136.094 159.317 129.279 154.764 123.827M136.655 150.113H117.662V193.521H136.655V150.113ZM111.434 143.561C111.687 141.465 112.352 139.495 113.338 137.732L99.4149 123.827C94.8617 129.279 91.8913 136.094 91.2146 143.561H111.423H111.434ZM163.114 150.113H143.203V193.521H163.102V150.113H163.114ZM111.102 150.113H91.0655V193.521H111.102V150.113Z" fill="#D5D9C9"/>
</g>
<path d="M221.99 98C203.804 98 189 112.42 189 130.112V200H255V130.112C255 112.42 240.196 98 221.99 98ZM244.415 196.776H235.151V174.053C235.151 167.009 229.251 161.241 221.99 161.241C214.729 161.241 208.819 166.999 208.819 174.053V196.776H199.585V153.137H244.415V196.776ZM244.415 149.922H227.511V124.703C227.511 121.744 225.033 119.332 221.99 119.332C218.948 119.332 216.489 121.744 216.489 124.703V149.922H199.585V131.842C199.585 119.796 209.646 110.018 221.99 110.018C234.335 110.018 244.415 119.796 244.415 131.842V149.922ZM251.685 196.776H247.729V131.833C247.729 118.009 236.191 106.794 221.99 106.794C207.789 106.794 196.271 118.018 196.271 131.833V196.776H192.315V130.112C192.315 114.179 205.622 101.224 222 101.224C238.378 101.224 251.695 114.188 251.695 130.112V196.776H251.685Z" fill="#D5D9C9"/>
<g clip-path="url(#clip1_1348_14834)">
<path d="M316.525 98C343.282 98 365.039 119.738 365.039 146.825V149.013H358.674V200.06H273.494V149.013L268 149.036V146.459C268 119.738 289.768 98.0115 316.514 98.0115M316.078 136.231C311.651 136.231 307.935 139.381 307.063 143.55H325.104C324.232 139.369 320.517 136.231 316.078 136.231ZM306.662 132.795C309.288 130.837 312.546 129.68 316.078 129.68C319.61 129.68 322.856 130.837 325.494 132.795L339.119 119.189C332.869 113.989 324.84 110.851 316.078 110.851C307.316 110.851 299.287 113.989 293.048 119.189L306.673 132.795H306.662ZM343.753 123.827L329.829 137.732C330.827 139.495 331.492 141.465 331.733 143.561H351.964C351.288 136.094 348.317 129.279 343.764 123.827M325.655 150.113H306.662V193.521H325.655V150.113ZM300.434 143.561C300.687 141.465 301.352 139.495 302.338 137.732L288.415 123.827C283.862 129.279 280.891 136.094 280.215 143.561H300.423H300.434ZM352.114 150.113H332.203V193.521H352.102V150.113H352.114ZM300.102 150.113H280.065V193.521H300.102V150.113Z" fill="#D5D9C9"/>
</g>
<path d="M410.99 98C392.804 98 378 112.42 378 130.112V200H444V130.112C444 112.42 429.196 98 410.99 98ZM433.415 196.776H424.151V174.053C424.151 167.009 418.251 161.241 410.99 161.241C403.729 161.241 397.819 166.999 397.819 174.053V196.776H388.585V153.137H433.415V196.776ZM433.415 149.922H416.511V124.703C416.511 121.744 414.033 119.332 410.99 119.332C407.948 119.332 405.489 121.744 405.489 124.703V149.922H388.585V131.842C388.585 119.796 398.646 110.018 410.99 110.018C423.335 110.018 433.415 119.796 433.415 131.842V149.922ZM440.685 196.776H436.729V131.833C436.729 118.009 425.191 106.794 410.99 106.794C396.789 106.794 385.271 118.018 385.271 131.833V196.776H381.315V130.112C381.315 114.179 394.622 101.224 411 101.224C427.378 101.224 440.695 114.188 440.695 130.112V196.776H440.685Z" fill="#D5D9C9"/>
<g clip-path="url(#clip2_1348_14834)">
<path d="M505.525 98C532.282 98 554.039 119.738 554.039 146.825V149.013H547.674V200.06H462.494V149.013L457 149.036V146.459C457 119.738 478.768 98.0115 505.514 98.0115M505.078 136.231C500.651 136.231 496.935 139.381 496.063 143.55H514.104C513.232 139.369 509.517 136.231 505.078 136.231ZM495.662 132.795C498.288 130.837 501.546 129.68 505.078 129.68C508.61 129.68 511.856 130.837 514.494 132.795L528.119 119.189C521.869 113.989 513.84 110.851 505.078 110.851C496.316 110.851 488.287 113.989 482.048 119.189L495.673 132.795H495.662ZM532.753 123.827L518.829 137.732C519.827 139.495 520.492 141.465 520.733 143.561H540.964C540.288 136.094 537.317 129.279 532.764 123.827M514.655 150.113H495.662V193.521H514.655V150.113ZM489.434 143.561C489.687 141.465 490.352 139.495 491.338 137.732L477.415 123.827C472.862 129.279 469.891 136.094 469.215 143.561H489.423H489.434ZM541.114 150.113H521.203V193.521H541.102V150.113H541.114ZM489.102 150.113H469.065V193.521H489.102V150.113Z" fill="#D5D9C9"/>
</g>
<path d="M599.99 98C581.804 98 567 112.42 567 130.112V200H633V130.112C633 112.42 618.196 98 599.99 98ZM622.415 196.776H613.151V174.053C613.151 167.009 607.251 161.241 599.99 161.241C592.729 161.241 586.819 166.999 586.819 174.053V196.776H577.585V153.137H622.415V196.776ZM622.415 149.922H605.511V124.703C605.511 121.744 603.033 119.332 599.99 119.332C596.948 119.332 594.489 121.744 594.489 124.703V149.922H577.585V131.842C577.585 119.796 587.646 110.018 599.99 110.018C612.335 110.018 622.415 119.796 622.415 131.842V149.922ZM629.685 196.776H625.729V131.833C625.729 118.009 614.191 106.794 599.99 106.794C585.789 106.794 574.271 118.018 574.271 131.833V196.776H570.315V130.112C570.315 114.179 583.622 101.224 600 101.224C616.378 101.224 629.695 114.188 629.695 130.112V196.776H629.685Z" fill="#D5D9C9"/>
<g clip-path="url(#clip3_1348_14834)">
<path d="M694.525 98C721.282 98 743.039 119.738 743.039 146.825V149.013H736.674V200.06H651.494V149.013L646 149.036V146.459C646 119.738 667.768 98.0115 694.514 98.0115M694.078 136.231C689.651 136.231 685.935 139.381 685.063 143.55H703.104C702.232 139.369 698.517 136.231 694.078 136.231ZM684.662 132.795C687.288 130.837 690.546 129.68 694.078 129.68C697.61 129.68 700.856 130.837 703.494 132.795L717.119 119.189C710.869 113.989 702.84 110.851 694.078 110.851C685.316 110.851 677.287 113.989 671.048 119.189L684.673 132.795H684.662ZM721.753 123.827L707.829 137.732C708.827 139.495 709.492 141.465 709.733 143.561H729.964C729.288 136.094 726.317 129.279 721.764 123.827M703.655 150.113H684.662V193.521H703.655V150.113ZM678.434 143.561C678.687 141.465 679.352 139.495 680.338 137.732L666.415 123.827C661.862 129.279 658.891 136.094 658.215 143.561H678.423H678.434ZM730.114 150.113H710.203V193.521H730.102V150.113H730.114ZM678.102 150.113H658.065V193.521H678.102V150.113Z" fill="#D5D9C9"/>
</g>
<path d="M788.99 98C770.804 98 756 112.42 756 130.112V200H822V130.112C822 112.42 807.196 98 788.99 98ZM811.415 196.776H802.151V174.053C802.151 167.009 796.251 161.241 788.99 161.241C781.729 161.241 775.819 166.999 775.819 174.053V196.776H766.585V153.137H811.415V196.776ZM811.415 149.922H794.511V124.703C794.511 121.744 792.033 119.332 788.99 119.332C785.948 119.332 783.489 121.744 783.489 124.703V149.922H766.585V131.842C766.585 119.796 776.646 110.018 788.99 110.018C801.335 110.018 811.415 119.796 811.415 131.842V149.922ZM818.685 196.776H814.729V131.833C814.729 118.009 803.191 106.794 788.99 106.794C774.789 106.794 763.271 118.018 763.271 131.833V196.776H759.315V130.112C759.315 114.179 772.622 101.224 789 101.224C805.378 101.224 818.695 114.188 818.695 130.112V196.776H818.685Z" fill="#D5D9C9"/>
<g clip-path="url(#clip4_1348_14834)">
<path d="M883.525 98C910.282 98 932.039 119.738 932.039 146.825V149.013H925.674V200.06H840.494V149.013L835 149.036V146.459C835 119.738 856.768 98.0115 883.514 98.0115M883.078 136.231C878.651 136.231 874.935 139.381 874.063 143.55H892.104C891.232 139.369 887.517 136.231 883.078 136.231ZM873.662 132.795C876.288 130.837 879.546 129.68 883.078 129.68C886.61 129.68 889.856 130.837 892.494 132.795L906.119 119.189C899.869 113.989 891.84 110.851 883.078 110.851C874.316 110.851 866.287 113.989 860.048 119.189L873.673 132.795H873.662ZM910.753 123.827L896.829 137.732C897.827 139.495 898.492 141.465 898.733 143.561H918.964C918.288 136.094 915.317 129.279 910.764 123.827M892.655 150.113H873.662V193.521H892.655V150.113ZM867.434 143.561C867.687 141.465 868.352 139.495 869.338 137.732L855.415 123.827C850.862 129.279 847.891 136.094 847.215 143.561H867.423H867.434ZM919.114 150.113H899.203V193.521H919.102V150.113H919.114ZM867.102 150.113H847.065V193.521H867.102V150.113Z" fill="#D5D9C9"/>
</g>
<path d="M977.99 98C959.804 98 945 112.42 945 130.112V200H1011V130.112C1011 112.42 996.196 98 977.99 98ZM1000.41 196.776H991.151V174.053C991.151 167.009 985.251 161.241 977.99 161.241C970.729 161.241 964.819 166.999 964.819 174.053V196.776H955.585V153.137H1000.41V196.776ZM1000.41 149.922H983.511V124.703C983.511 121.744 981.033 119.332 977.99 119.332C974.948 119.332 972.489 121.744 972.489 124.703V149.922H955.585V131.842C955.585 119.796 965.646 110.018 977.99 110.018C990.335 110.018 1000.41 119.796 1000.41 131.842V149.922ZM1007.69 196.776H1003.73V131.833C1003.73 118.009 992.191 106.794 977.99 106.794C963.789 106.794 952.271 118.018 952.271 131.833V196.776H948.315V130.112C948.315 114.179 961.622 101.224 978 101.224C994.378 101.224 1007.7 114.188 1007.7 130.112V196.776H1007.69Z" fill="#D5D9C9"/>
<g clip-path="url(#clip5_1348_14834)">
<path d="M1072.53 98C1099.28 98 1121.04 119.738 1121.04 146.825V149.013H1114.67V200.06H1029.49V149.013L1024 149.036V146.459C1024 119.738 1045.77 98.0115 1072.51 98.0115M1072.08 136.231C1067.65 136.231 1063.94 139.381 1063.06 143.55H1081.1C1080.23 139.369 1076.52 136.231 1072.08 136.231ZM1062.66 132.795C1065.29 130.837 1068.55 129.68 1072.08 129.68C1075.61 129.68 1078.86 130.837 1081.49 132.795L1095.12 119.189C1088.87 113.989 1080.84 110.851 1072.08 110.851C1063.32 110.851 1055.29 113.989 1049.05 119.189L1062.67 132.795H1062.66ZM1099.75 123.827L1085.83 137.732C1086.83 139.495 1087.49 141.465 1087.73 143.561H1107.96C1107.29 136.094 1104.32 129.279 1099.76 123.827M1081.65 150.113H1062.66V193.521H1081.65V150.113ZM1056.43 143.561C1056.69 141.465 1057.35 139.495 1058.34 137.732L1044.41 123.827C1039.86 129.279 1036.89 136.094 1036.21 143.561H1056.42H1056.43ZM1108.11 150.113H1088.2V193.521H1108.1V150.113H1108.11ZM1056.1 150.113H1036.07V193.521H1056.1V150.113Z" fill="#D5D9C9"/>
</g>
<path d="M1166.99 98C1148.8 98 1134 112.42 1134 130.112V200H1200V130.112C1200 112.42 1185.2 98 1166.99 98ZM1189.41 196.776H1180.15V174.053C1180.15 167.009 1174.25 161.241 1166.99 161.241C1159.73 161.241 1153.82 166.999 1153.82 174.053V196.776H1144.59V153.137H1189.41V196.776ZM1189.41 149.922H1172.51V124.703C1172.51 121.744 1170.03 119.332 1166.99 119.332C1163.95 119.332 1161.49 121.744 1161.49 124.703V149.922H1144.59V131.842C1144.59 119.796 1154.65 110.018 1166.99 110.018C1179.33 110.018 1189.41 119.796 1189.41 131.842V149.922ZM1196.69 196.776H1192.73V131.833C1192.73 118.009 1181.19 106.794 1166.99 106.794C1152.79 106.794 1141.27 118.018 1141.27 131.833V196.776H1137.31V130.112C1137.31 114.179 1150.62 101.224 1167 101.224C1183.38 101.224 1196.7 114.188 1196.7 130.112V196.776H1196.69Z" fill="#D5D9C9"/>
<g clip-path="url(#clip6_1348_14834)">
<path d="M1261.53 98C1288.28 98 1310.04 119.738 1310.04 146.825V149.013H1303.67V200.06H1218.49V149.013L1213 149.036V146.459C1213 119.738 1234.77 98.0115 1261.51 98.0115M1261.08 136.231C1256.65 136.231 1252.94 139.381 1252.06 143.55H1270.1C1269.23 139.369 1265.52 136.231 1261.08 136.231ZM1251.66 132.795C1254.29 130.837 1257.55 129.68 1261.08 129.68C1264.61 129.68 1267.86 130.837 1270.49 132.795L1284.12 119.189C1277.87 113.989 1269.84 110.851 1261.08 110.851C1252.32 110.851 1244.29 113.989 1238.05 119.189L1251.67 132.795H1251.66ZM1288.75 123.827L1274.83 137.732C1275.83 139.495 1276.49 141.465 1276.73 143.561H1296.96C1296.29 136.094 1293.32 129.279 1288.76 123.827M1270.65 150.113H1251.66V193.521H1270.65V150.113ZM1245.43 143.561C1245.69 141.465 1246.35 139.495 1247.34 137.732L1233.41 123.827C1228.86 129.279 1225.89 136.094 1225.21 143.561H1245.42H1245.43ZM1297.11 150.113H1277.2V193.521H1297.1V150.113H1297.11ZM1245.1 150.113H1225.07V193.521H1245.1V150.113Z" fill="#D5D9C9"/>
</g>
<path d="M1355.99 98C1337.8 98 1323 112.42 1323 130.112V200H1389V130.112C1389 112.42 1374.2 98 1355.99 98ZM1378.41 196.776H1369.15V174.053C1369.15 167.009 1363.25 161.241 1355.99 161.241C1348.73 161.241 1342.82 166.999 1342.82 174.053V196.776H1333.59V153.137H1378.41V196.776ZM1378.41 149.922H1361.51V124.703C1361.51 121.744 1359.03 119.332 1355.99 119.332C1352.95 119.332 1350.49 121.744 1350.49 124.703V149.922H1333.59V131.842C1333.59 119.796 1343.65 110.018 1355.99 110.018C1368.33 110.018 1378.41 119.796 1378.41 131.842V149.922ZM1385.69 196.776H1381.73V131.833C1381.73 118.009 1370.19 106.794 1355.99 106.794C1341.79 106.794 1330.27 118.018 1330.27 131.833V196.776H1326.31V130.112C1326.31 114.179 1339.62 101.224 1356 101.224C1372.38 101.224 1385.7 114.188 1385.7 130.112V196.776H1385.69Z" fill="#D5D9C9"/>
<g clip-path="url(#clip7_1348_14834)">
<path d="M1450.53 98C1477.28 98 1499.04 119.738 1499.04 146.825V149.013H1492.67V200.06H1407.49V149.013L1402 149.036V146.459C1402 119.738 1423.77 98.0115 1450.51 98.0115M1450.08 136.231C1445.65 136.231 1441.94 139.381 1441.06 143.55H1459.1C1458.23 139.369 1454.52 136.231 1450.08 136.231ZM1440.66 132.795C1443.29 130.837 1446.55 129.68 1450.08 129.68C1453.61 129.68 1456.86 130.837 1459.49 132.795L1473.12 119.189C1466.87 113.989 1458.84 110.851 1450.08 110.851C1441.32 110.851 1433.29 113.989 1427.05 119.189L1440.67 132.795H1440.66ZM1477.75 123.827L1463.83 137.732C1464.83 139.495 1465.49 141.465 1465.73 143.561H1485.96C1485.29 136.094 1482.32 129.279 1477.76 123.827M1459.65 150.113H1440.66V193.521H1459.65V150.113ZM1434.43 143.561C1434.69 141.465 1435.35 139.495 1436.34 137.732L1422.41 123.827C1417.86 129.279 1414.89 136.094 1414.21 143.561H1434.42H1434.43ZM1486.11 150.113H1466.2V193.521H1486.1V150.113H1486.11ZM1434.1 150.113H1414.07V193.521H1434.1V150.113Z" fill="#D5D9C9"/>
</g>
<path d="M1544.99 98C1526.8 98 1512 112.42 1512 130.112V200H1578V130.112C1578 112.42 1563.2 98 1544.99 98ZM1567.41 196.776H1558.15V174.053C1558.15 167.009 1552.25 161.241 1544.99 161.241C1537.73 161.241 1531.82 166.999 1531.82 174.053V196.776H1522.59V153.137H1567.41V196.776ZM1567.41 149.922H1550.51V124.703C1550.51 121.744 1548.03 119.332 1544.99 119.332C1541.95 119.332 1539.49 121.744 1539.49 124.703V149.922H1522.59V131.842C1522.59 119.796 1532.65 110.018 1544.99 110.018C1557.33 110.018 1567.41 119.796 1567.41 131.842V149.922ZM1574.69 196.776H1570.73V131.833C1570.73 118.009 1559.19 106.794 1544.99 106.794C1530.79 106.794 1519.27 118.018 1519.27 131.833V196.776H1515.31V130.112C1515.31 114.179 1528.62 101.224 1545 101.224C1561.38 101.224 1574.7 114.188 1574.7 130.112V196.776H1574.69Z" fill="#D5D9C9"/>
<g clip-path="url(#clip8_1348_14834)">
<path d="M1639.53 98C1666.28 98 1688.04 119.738 1688.04 146.825V149.013H1681.67V200.06H1596.49V149.013L1591 149.036V146.459C1591 119.738 1612.77 98.0115 1639.51 98.0115M1639.08 136.231C1634.65 136.231 1630.94 139.381 1630.06 143.55H1648.1C1647.23 139.369 1643.52 136.231 1639.08 136.231ZM1629.66 132.795C1632.29 130.837 1635.55 129.68 1639.08 129.68C1642.61 129.68 1645.86 130.837 1648.49 132.795L1662.12 119.189C1655.87 113.989 1647.84 110.851 1639.08 110.851C1630.32 110.851 1622.29 113.989 1616.05 119.189L1629.67 132.795H1629.66ZM1666.75 123.827L1652.83 137.732C1653.83 139.495 1654.49 141.465 1654.73 143.561H1674.96C1674.29 136.094 1671.32 129.279 1666.76 123.827M1648.65 150.113H1629.66V193.521H1648.65V150.113ZM1623.43 143.561C1623.69 141.465 1624.35 139.495 1625.34 137.732L1611.41 123.827C1606.86 129.279 1603.89 136.094 1603.21 143.561H1623.42H1623.43ZM1675.11 150.113H1655.2V193.521H1675.1V150.113H1675.11ZM1623.1 150.113H1603.07V193.521H1623.1V150.113Z" fill="#D5D9C9"/>
</g>
<path d="M1733.99 98C1715.8 98 1701 112.42 1701 130.112V200H1767V130.112C1767 112.42 1752.2 98 1733.99 98ZM1756.41 196.776H1747.15V174.053C1747.15 167.009 1741.25 161.241 1733.99 161.241C1726.73 161.241 1720.82 166.999 1720.82 174.053V196.776H1711.59V153.137H1756.41V196.776ZM1756.41 149.922H1739.51V124.703C1739.51 121.744 1737.03 119.332 1733.99 119.332C1730.95 119.332 1728.49 121.744 1728.49 124.703V149.922H1711.59V131.842C1711.59 119.796 1721.65 110.018 1733.99 110.018C1746.33 110.018 1756.41 119.796 1756.41 131.842V149.922ZM1763.69 196.776H1759.73V131.833C1759.73 118.009 1748.19 106.794 1733.99 106.794C1719.79 106.794 1708.27 118.018 1708.27 131.833V196.776H1704.31V130.112C1704.31 114.179 1717.62 101.224 1734 101.224C1750.38 101.224 1763.7 114.188 1763.7 130.112V196.776H1763.69Z" fill="#D5D9C9"/>
<g clip-path="url(#clip9_1348_14834)">
<path d="M1875.15 0C1927.61 0 1970.27 42.6243 1970.27 95.7362V100.026H1957.79V200.118H1790.77V100.026L1780 100.07V95.0175C1780 42.6243 1822.68 0.0224794 1875.13 0.0224794M1874.27 74.963C1865.59 74.963 1858.3 81.1388 1856.6 89.3133H1891.97C1890.26 81.1164 1882.97 74.963 1874.27 74.963ZM1855.81 68.2258C1860.96 64.3856 1867.35 62.1173 1874.27 62.1173C1881.2 62.1173 1887.56 64.3856 1892.73 68.2258L1919.45 41.5463C1907.19 31.3506 1891.45 25.1973 1874.27 25.1973C1857.09 25.1973 1841.35 31.3506 1829.12 41.5463L1855.83 68.2258H1855.81ZM1928.54 50.6416L1901.23 77.9049C1903.19 81.3634 1904.5 85.2261 1904.97 89.3358H1944.64C1943.31 74.6935 1937.49 61.3313 1928.56 50.6416M1893.05 102.181H1855.81V187.295H1893.05V102.181ZM1843.6 89.3358C1844.09 85.2261 1845.4 81.3634 1847.33 77.9049L1820.03 50.6416C1811.1 61.3313 1805.28 74.6935 1803.95 89.3358H1843.58H1843.6ZM1944.93 102.181H1905.89V187.295H1944.91V102.181H1944.93ZM1842.95 102.181H1803.66V187.295H1842.95V102.181Z" fill="#D5D9C9"/>
</g>
<defs>
<clipPath id="clip0_1348_14834">
<rect width="97" height="102" fill="white" transform="matrix(-1 0 0 1 176 98)"/>
</clipPath>
<clipPath id="clip1_1348_14834">
<rect width="97" height="102" fill="white" transform="matrix(-1 0 0 1 365 98)"/>
</clipPath>
<clipPath id="clip2_1348_14834">
<rect width="97" height="102" fill="white" transform="matrix(-1 0 0 1 554 98)"/>
</clipPath>
<clipPath id="clip3_1348_14834">
<rect width="97" height="102" fill="white" transform="matrix(-1 0 0 1 743 98)"/>
</clipPath>
<clipPath id="clip4_1348_14834">
<rect width="97" height="102" fill="white" transform="matrix(-1 0 0 1 932 98)"/>
</clipPath>
<clipPath id="clip5_1348_14834">
<rect width="97" height="102" fill="white" transform="matrix(-1 0 0 1 1121 98)"/>
</clipPath>
<clipPath id="clip6_1348_14834">
<rect width="97" height="102" fill="white" transform="matrix(-1 0 0 1 1310 98)"/>
</clipPath>
<clipPath id="clip7_1348_14834">
<rect width="97" height="102" fill="white" transform="matrix(-1 0 0 1 1499 98)"/>
</clipPath>
<clipPath id="clip8_1348_14834">
<rect width="97" height="102" fill="white" transform="matrix(-1 0 0 1 1688 98)"/>
</clipPath>
<clipPath id="clip9_1348_14834">
<rect width="190.196" height="200" fill="white" transform="matrix(-1 0 0 1 1970.2 0)"/>
</clipPath>
</defs>
</svg>
