<svg width="24" height="24" viewBox="0 0 24 24" fill="none" xmlns="http://www.w3.org/2000/svg">
<path d="M18 3.00007C16.14 3.00007 14.603 4.2794 14.157 6.00006H9.36498L5.51167 2.14675C5.378 2.01343 5.18066 1.96507 4.99999 2.02608L2 3.02608L2.31633 3.9744L5.02331 3.07241L7.95096 6.00006H4.99999C4.58167 6.00006 4.20734 6.26072 4.06199 6.65306C3.91664 7.04572 4.03132 7.48705 4.34898 7.75939L11.5 13.8887V21H8.99998C8.72365 21 8.49998 21.2237 8.49998 21.5C8.49998 21.7763 8.72365 22 8.99998 22H15C15.2763 22 15.5 21.7763 15.5 21.5C15.5 21.2237 15.2763 21 15 21H12.5V13.8887L16.3126 10.6207C16.8253 10.862 17.3956 11 18 11C20.2089 11 21.9999 9.20903 21.9999 7.00005C21.9999 4.79108 20.2089 3.00007 18 3.00007ZM12 13L4.99999 7.00005H8.951H10.365H19L12 13ZM18 10C17.7156 10 17.4466 9.94805 17.188 9.8704L19.651 7.75939C19.9686 7.48705 20.0833 7.04572 19.938 6.65306C19.7926 6.26072 19.4183 6.00006 19 6.00006H15.182C15.5953 4.83807 16.6976 4.00006 18 4.00006C19.6543 4.00006 20.9999 5.34572 20.9999 7.00005C20.9999 8.65439 19.6543 10 18 10Z" fill="#E0E1D1"/>
</svg>
