<svg width="399" height="399" viewBox="0 0 399 399" fill="none" xmlns="http://www.w3.org/2000/svg">
<path d="M399 199.5C399 309.681 309.681 399 199.5 399C89.3192 399 0 309.681 0 199.5C0 89.3192 89.3192 0 199.5 0C309.681 0 399 89.3192 399 199.5Z" fill="#00362A"/>
<path fill-rule="evenodd" clip-rule="evenodd" d="M376 199C376 296.754 296.754 376 199 376C101.246 376 22 296.754 22 199C22 101.246 101.246 22 199 22C296.754 22 376 101.246 376 199ZM199 375C296.202 375 375 296.202 375 199C375 101.798 296.202 23 199 23C101.798 23 23 101.798 23 199C23 296.202 101.798 375 199 375Z" fill="#E0E1D1"/>
<path d="M375 199C375 222.113 370.448 244.999 361.603 266.352C352.758 287.706 339.794 307.108 323.451 323.451C307.108 339.794 287.706 352.758 266.352 361.603C244.999 370.448 222.113 375 199 375C175.887 375 153.001 370.448 131.648 361.603C110.294 352.758 90.8923 339.794 74.5492 323.451C58.2061 307.108 45.242 287.706 36.3972 266.352C27.5524 244.999 23 222.113 23 199L375 199Z" fill="#004535"/>
<path d="M358.337 199.389C358.195 201.752 356.588 204.163 354.461 205.014C351.294 206.337 347.937 204.068 346.519 203.123C342.17 200.192 340.327 195.701 339.429 193.102C335.789 182.513 337.774 176.131 337.254 170.033C337.679 166.63 337.916 161.761 336.923 156.183C336.309 152.732 335.316 149.754 334.323 147.343C332.621 147.485 330.872 147.579 329.171 147.674C330.4 150.274 335.032 160.248 331.345 171.829C329.596 177.36 326.571 181.236 324.443 183.553L273.201 180.433C273.107 181.047 272.634 185.68 268.805 188.185C264.267 191.163 257.744 189.509 255.238 185.727C252.024 181.047 255.806 173.957 258.642 170.742C265.402 163.226 279.772 163.037 295.135 169.419C293.528 167.764 290.786 164.313 290.172 159.397C289.51 154.103 291.543 150.037 293.15 146.823C295.088 143.041 297.404 140.347 299.011 138.692C298.208 138.172 297.452 137.652 296.648 137.132C295.324 138.361 293.575 140.205 292.015 142.758C290.314 145.547 289.463 148.194 288.99 150.037C284.83 149.706 278.496 148.761 271.641 145.357C267.765 143.419 264.693 141.245 262.329 139.307C264.031 138.456 266.961 136.659 269.609 133.35C272.02 130.372 273.012 127.394 273.438 125.551C272.445 125.267 271.5 124.889 270.507 124.558C269.467 127.253 267.434 131.223 263.416 134.154C263.416 134.154 259.587 136.896 251.787 138.692C251.646 138.739 251.598 138.692 251.551 138.787H251.504C248.668 139.212 245.689 139.59 242.475 139.732C232.973 140.205 224.795 138.928 218.367 137.369C218.083 141.67 217.799 145.877 217.516 150.179C216.901 150.179 209.196 150.179 205.84 144.743C202.814 139.779 205.651 132.972 208.345 129.191C216.334 118.271 232.453 124.842 242.759 113.307C245.737 109.998 247.202 106.406 247.911 104.089C247.155 103.522 246.351 103.002 245.548 102.482C245.169 104.184 243.799 108.249 240.017 111.322C236.85 113.875 233.493 114.489 231.839 114.726C221.392 116.522 211.749 109.053 209.243 107.068C212.269 109.857 212.789 114.536 210.425 117.893C208.061 121.296 203.476 122.478 199.742 120.493C199.363 119.736 198.844 118.318 198.371 116.616C197.614 113.591 197.236 109.62 198.796 105.649C198.891 105.413 198.985 105.177 199.127 104.988C199.127 104.988 199.08 104.94 199.127 104.94C202.909 96.5734 214.396 91.3735 227.159 94.2098C227.868 94.3043 235.479 95.0134 240.679 89.1045C244.555 84.6137 245.453 78.232 243.09 72.6067C244.319 71.3304 246.209 69.2505 247.108 66.7451C261.289 83.0537 275.187 93.548 286.059 100.45C295.986 106.689 305.582 111.322 313.949 115.813C322.269 120.304 329.36 124.652 334.37 130.514H334.418C335.552 132.121 336.639 133.54 337.585 135.005C345.574 147.059 347.417 156.844 347.512 163.841C347.606 172.68 344.912 179.913 349.828 187.145C353.232 192.251 358.573 194.567 358.148 199.294L358.337 199.389Z" fill="#004535"/>
<path d="M334.607 130.705C335.742 132.218 336.782 133.684 337.775 135.149C336.876 133.589 335.789 132.124 334.607 130.705Z" fill="#004535"/>
<path d="M251.644 138.834C251.644 138.834 251.785 138.834 251.88 138.834C251.88 138.834 251.738 138.834 251.644 138.834Z" fill="#004535"/>
<path d="M234.77 54.4543C233.541 54.3125 232.406 54.1707 231.177 54.0762C228.199 53.0362 225.079 52.6107 222.763 52.5635C221.014 52.5635 218.981 52.7525 216.854 53.2725C212.032 53.1307 207.258 53.0362 202.436 52.9889C201.207 52.8944 199.978 52.8944 198.796 52.8944C198.891 53.5562 199.411 57.1961 202.058 59.796C202.673 60.5523 203.382 61.1196 204.233 61.545C204.611 61.7341 204.942 61.9233 205.32 62.0651C204.374 65.4213 205.367 68.5885 206.076 70.3376C204.091 76.861 205.698 83.2426 209.905 86.1262C212.174 87.7334 216.57 89.1988 219.927 87.0243C221.345 86.0789 222.668 84.3771 222.999 82.5335C223.047 84.3771 223.992 86.3153 225.41 87.4971C228.341 89.9079 232.784 88.5843 235.054 87.1661C239.072 84.5662 240.679 78.5627 238.882 72.3702C239.544 70.9993 240.821 68.0213 240.537 64.6178C240.537 64.5232 240.537 64.3813 240.537 64.334L240.679 64.5704C241.482 64.5232 242.381 64.334 243.326 63.9086C248.1 61.9232 249.519 56.7706 249.755 55.967C244.791 55.447 239.875 54.9743 234.912 54.4543H234.77ZM212.836 66.6504C210.378 65.7522 209.338 63.8141 209.102 63.3413C209.574 63.0104 211.465 62.0178 213.923 62.4905C217.043 63.105 218.556 65.7049 218.792 66.0358C218.414 66.2249 215.814 67.7376 212.883 66.6504H212.836ZM223.094 80.879C223.094 80.879 223.094 81.0681 222.999 81.1154C222.621 77.5228 218.225 76.2464 218.745 74.8756C219.312 73.1265 227.017 73.5047 227.49 75.3483C227.821 76.7192 223.945 77.5227 223.094 80.879ZM232.265 67.8322C229.192 68.5412 226.781 66.7449 226.45 66.5086C226.687 66.1777 228.53 63.7669 231.745 63.5778C234.203 63.436 235.904 64.665 236.377 65.0432C236.046 65.4686 234.77 67.2648 232.265 67.8794V67.8322Z" fill="#004535"/>
<path d="M222.95 82.4881C223.045 82.0627 223.045 81.6844 223.045 81.259C222.95 81.6844 222.95 82.0627 222.95 82.4881Z" fill="#004535"/>
<path d="M240.399 64.2373C240.399 64.2373 240.399 64.4264 240.399 64.5209C240.399 64.5209 240.493 64.5209 240.541 64.5209L240.399 64.2373Z" fill="#004535"/>
<path d="M251.644 138.834C251.644 138.834 251.785 138.834 251.88 138.834C251.88 138.834 251.738 138.834 251.644 138.834Z" fill="#004535"/>
<path d="M233.065 121.201C233.065 121.201 233.065 121.201 233.159 121.201C233.159 121.201 233.112 121.201 233.065 121.201Z" fill="#004535"/>
<path d="M251.644 138.834C251.644 138.834 251.785 138.834 251.88 138.834C251.88 138.834 251.738 138.834 251.644 138.834Z" fill="#004535"/>
<path d="M233.067 121.201C233.067 121.201 233.067 121.201 233.161 121.201C233.161 121.201 233.114 121.201 233.067 121.201Z" fill="#004535"/>
<path d="M37.0293 199.393C37.1711 201.756 38.7784 204.167 40.9056 205.018C44.0728 206.342 47.429 204.073 48.8471 203.127C53.1961 200.196 55.0397 195.706 55.9378 193.106C59.5777 182.517 57.5923 176.135 58.1123 170.037C57.6868 166.634 57.4505 161.765 58.4432 156.187C59.0577 152.736 60.0504 149.758 61.0431 147.347C62.7449 147.489 64.4939 147.583 66.1956 147.678C64.9666 150.278 60.334 160.252 64.0212 171.834C65.7702 177.364 68.7956 181.24 70.9228 183.557L122.165 180.437C122.259 181.052 122.732 185.684 126.561 188.189C131.099 191.168 137.623 189.513 140.128 185.731C143.343 181.051 139.561 173.961 136.725 170.746C129.965 163.23 115.594 163.041 100.231 169.423C101.838 167.768 104.58 164.317 105.195 159.401C105.856 154.107 103.824 150.041 102.217 146.827C100.278 143.045 97.962 140.351 96.3548 138.696C97.1584 138.176 97.9148 137.656 98.7184 137.136C100.042 138.365 101.791 140.209 103.351 142.762C105.053 145.551 105.904 148.198 106.376 150.041C110.536 149.711 116.871 148.765 123.725 145.362C127.601 143.423 130.674 141.249 133.037 139.311C131.336 138.46 128.405 136.664 125.758 133.355C123.347 130.377 122.354 127.398 121.929 125.555C122.921 125.271 123.867 124.893 124.859 124.562C125.899 127.257 127.932 131.227 131.95 134.158C131.95 134.158 135.779 136.9 143.579 138.696C143.721 138.744 143.768 138.696 143.815 138.791H143.863C146.699 139.216 149.677 139.594 152.891 139.736C162.393 140.209 170.571 138.933 177 137.373C177.283 141.674 177.567 145.882 177.851 150.183C178.465 150.183 186.17 150.183 189.527 144.747C192.552 139.784 189.716 132.976 187.021 129.195C179.032 118.275 162.913 124.846 152.608 113.312C149.63 110.003 148.164 106.41 147.455 104.094C148.211 103.526 149.015 103.006 149.819 102.486C150.197 104.188 151.568 108.254 155.35 111.326C158.517 113.879 161.873 114.493 163.527 114.73C173.974 116.526 183.618 109.057 186.123 107.072C183.098 109.861 182.578 114.541 184.941 117.897C187.305 121.3 191.89 122.482 195.625 120.497C196.003 119.74 196.523 118.322 196.996 116.621C197.752 113.595 198.13 109.624 196.57 105.654C196.476 105.417 196.381 105.181 196.239 104.992C196.239 104.992 196.286 104.945 196.239 104.945C192.458 96.5776 180.971 91.3777 168.207 94.2139C167.498 94.3085 159.887 95.0176 154.688 89.1087C150.811 84.6179 149.913 78.2362 152.277 72.6109C151.048 71.3346 149.157 69.2547 148.259 66.7493C134.077 83.0579 120.18 93.5522 109.307 100.454C99.3803 106.694 89.7841 111.326 81.417 115.817C73.0973 120.308 66.0067 124.657 60.9959 130.518H60.9486C59.8141 132.126 58.7268 133.544 57.7813 135.009C49.7925 147.063 47.949 156.849 47.8545 163.845C47.7599 172.684 50.4543 179.917 45.5381 187.149C42.1345 192.255 36.793 194.571 37.2184 199.298L37.0293 199.393Z" fill="#004535"/>
<path d="M60.7565 130.709C59.622 132.221 58.5821 133.687 57.5894 135.152C58.4876 133.592 59.5747 132.127 60.7565 130.709Z" fill="#004535"/>
<path d="M143.719 138.837C143.719 138.837 143.577 138.837 143.482 138.837C143.482 138.837 143.624 138.837 143.719 138.837Z" fill="#004535"/>
<path d="M145.707 55.9241C145.944 56.7277 147.362 61.8804 152.136 63.8658C153.082 64.2912 153.98 64.4329 154.784 64.5275L154.925 64.2912C154.925 64.2912 154.878 64.4802 154.925 64.5748C154.594 67.9783 155.918 70.9564 156.58 72.3272C154.736 78.4725 156.391 84.5233 160.409 87.1232C162.631 88.5413 167.074 89.865 170.052 87.4541C171.47 86.2723 172.416 84.3343 172.463 82.4907C172.794 84.3343 174.118 85.9887 175.536 86.9814C178.892 89.1559 183.241 87.6904 185.557 86.0832C189.764 83.1996 191.324 76.818 189.386 70.2946C190.095 68.5455 191.135 65.4256 190.142 62.0221C190.473 61.8803 190.804 61.6913 191.23 61.5022C192.081 61.0295 192.79 60.4621 193.404 59.753C196.051 57.1531 196.571 53.5132 196.666 52.8514C195.437 52.8514 194.208 52.8515 193.026 52.9461C188.204 52.9933 183.43 53.1352 178.608 53.2297C176.481 52.7097 174.448 52.5678 172.699 52.5205C170.383 52.5205 167.263 52.9933 164.285 54.0332C163.056 54.175 161.922 54.3169 160.693 54.4115C155.729 54.8842 150.813 55.3568 145.849 55.9241H145.707ZM176.576 66.0402C176.765 65.662 178.325 63.0621 181.445 62.4948C183.903 62.0694 185.794 63.0621 186.266 63.3457C185.983 63.8184 184.943 65.7566 182.532 66.6547C179.554 67.6947 177.001 66.2293 176.623 66.0402H176.576ZM167.83 75.3527C168.303 73.5091 176.008 73.0836 176.576 74.8799C177.048 76.2508 172.652 77.5744 172.321 81.1198C172.274 81.0725 172.274 80.9306 172.227 80.8833C171.376 77.4798 167.499 76.6763 167.83 75.3527ZM158.943 65.0002C159.369 64.622 161.118 63.393 163.576 63.5348C166.79 63.7239 168.634 66.1347 168.87 66.4656C168.539 66.702 166.129 68.4983 163.056 67.7892C160.503 67.1747 159.227 65.4256 158.943 64.9529V65.0002Z" fill="#004535"/>
<path d="M172.419 82.4917C172.325 82.0663 172.325 81.6881 172.325 81.2626C172.419 81.6881 172.419 82.0663 172.419 82.4917Z" fill="#004535"/>
<path d="M154.971 64.2462C154.971 64.2462 154.971 64.4353 154.971 64.5299C154.971 64.5299 154.877 64.5299 154.829 64.5299L154.971 64.2462Z" fill="#004535"/>
<path d="M143.719 138.837C143.719 138.837 143.577 138.837 143.482 138.837C143.482 138.837 143.624 138.837 143.719 138.837Z" fill="#004535"/>
<path d="M162.301 121.208C162.301 121.208 162.301 121.208 162.207 121.208C162.207 121.208 162.254 121.208 162.301 121.208Z" fill="#004535"/>
<path d="M143.719 138.837C143.719 138.837 143.577 138.837 143.482 138.837C143.482 138.837 143.624 138.837 143.719 138.837Z" fill="#004535"/>
<path d="M162.301 121.208C162.301 121.208 162.301 121.208 162.207 121.208C162.207 121.208 162.254 121.208 162.301 121.208Z" fill="#004535"/>
<path d="M254 205C254 235.376 229.376 260 199 260C168.624 260 144 235.376 144 205C144 174.624 168.624 150 199 150C229.376 150 254 174.624 254 205Z" fill="#004535"/>
</svg>
