<svg width="1720" height="756" viewBox="0 0 1720 756" fill="none" xmlns="http://www.w3.org/2000/svg">
<g clip-path="url(#clip0_846_54618)">
<mask id="mask0_846_54618" style="mask-type:alpha" maskUnits="userSpaceOnUse" x="-2256" y="0" width="6241" height="2543">
<path d="M3984.99 1175.26L3954.04 1118.99H3953.85L3939.47 1092.4H3939.29L3726.96 715.278H3724.05H3516.82V649.359L3272.08 488.749L3017.15 649.541V715.096H2876.75V649.176L2632.01 488.567L2377.44 649.359V714.913H2233.4V648.994L1988.66 488.385L1892.7 548.841L1756.85 307.744H1142.82V276.241C1142.82 123.826 1018.99 0 866.579 0C714.163 0 590.702 123.826 590.702 276.241V307.744H-23.8765L-156.261 542.832L-242.575 488.203L-487.314 648.812V714.731H-631.353V649.176L-886.289 488.385L-1131.03 648.994V714.731H-1271.42V649.176L-1526 488.385L-1770.73 648.994V714.731H-1997.45L-2209.77 1092.4L-2224.7 1118.99L-2255.84 1175.26H-2009.65V2542.08H3742.8V1175.26H3984.99ZM896.989 219.427H896.807C890.434 216.149 883.696 214.328 876.594 213.6H876.412C872.77 212.872 868.946 212.507 864.94 212.507C863.301 212.507 862.208 212.507 860.751 212.689H860.569C852.375 212.872 844.545 214.51 837.443 217.424C806.304 228.532 783.906 258.76 783.906 293.541V307.926H630.763V276.423C630.763 146.224 736.743 40.2435 866.761 40.2435C996.778 40.2435 1102.94 146.224 1102.94 276.423V307.926H945.973V293.541C945.973 260.217 925.76 231.81 897.171 219.245L896.989 219.427ZM-1227.72 755.157L-1305.11 892.64V818.709L-1269.42 755.157H-1227.72ZM-468.012 1623.58V1640.7H-481.487V1623.58H-468.012ZM-441.425 1623.58H-427.95V1640.7H-441.425V1623.58ZM-401.364 1623.58H-387.889V1640.7H-401.364V1623.58ZM-327.615 1596.99V1545.09H-183.758V1596.99H-327.615ZM-361.12 1623.58H-347.645V1640.7H-361.12V1623.58ZM-321.059 1623.58H-307.584V1640.7H-321.059V1623.58ZM-280.998 1623.58H-267.523V1640.7H-280.998V1623.58ZM-240.936 1623.58H-227.461V1640.7H-240.936V1623.58ZM-200.875 1623.58H-187.4V1640.7H-200.875V1623.58ZM-160.814 1623.58H-147.338V1640.7H-160.814V1623.58ZM-120.752 1623.58H-107.277V1640.7H-120.752V1623.58ZM-80.6909 1623.58H-67.2156V1640.7H-80.6909V1623.58ZM-40.6294 1623.58H-27.1543V1640.7H-40.6294V1623.58ZM-0.568115 1623.58H12.907V1640.7H-0.568115V1623.58ZM-144.243 1596.99V1545.09H-36.8054V1596.99H-144.243ZM-36.8054 1505.03H-144.243V1388.13H-36.8054V1505.03ZM-184.304 1505.03H-328.161V1388.13H-184.304V1505.03ZM-368.04 1505.03H-475.478V1388.13H-368.04V1505.03ZM-475.478 1544.91H-368.04V1596.81H-475.478V1544.91ZM-508.619 1623.58V1640.7H-522.094V1623.58H-508.619ZM-548.681 1640.7H-562.702V1623.58H-548.681V1640.7ZM-589.47 1640.7H-600.396V1623.58H-589.47V1640.7ZM-1842.48 1623.58H-1828.46V1640.7H-1842.48V1623.58ZM-1801.69 1623.58H-1788.22V1640.7H-1801.69V1623.58ZM-1423.84 1596.99V1545.09H-1316.4V1596.99H-1423.84ZM-1607.58 1596.99V1545.09H-1463.72V1596.99H-1607.58ZM-1316.4 1505.03H-1423.84V1388.13H-1316.4V1505.03ZM-1463.9 1505.03H-1607.76V1388.13H-1463.9V1505.03ZM-1647.64 1505.03H-1755.07V1388.13H-1647.64V1505.03ZM-1755.07 1544.91H-1647.64V1596.81H-1755.07V1544.91ZM-1761.45 1623.58H-1747.97V1640.7H-1761.45V1623.58ZM-1721.39 1623.58H-1707.91V1640.7H-1721.39V1623.58ZM-1681.33 1623.58H-1667.85V1640.7H-1681.33V1623.58ZM-1641.26 1623.58H-1627.79V1640.7H-1641.26V1623.58ZM-1601.2 1623.58H-1587.73V1640.7H-1601.2V1623.58ZM-1561.14 1623.58H-1547.67V1640.7H-1561.14V1623.58ZM-1521.08 1623.58H-1507.6V1640.7H-1521.08V1623.58ZM-1481.02 1623.58H-1467.54V1640.7H-1481.02V1623.58ZM-1440.96 1623.58H-1427.48V1640.7H-1440.96V1623.58ZM-1400.9 1623.58H-1387.42V1640.7H-1400.9V1623.58ZM-1360.83 1623.58H-1347.36V1640.7H-1360.83V1623.58ZM-1320.77 1623.58H-1307.3V1640.7H-1320.77V1623.58ZM-1280.71 1623.58H-1267.24V1640.7H-1280.71V1623.58ZM-1240.65 1623.58H-1229.72V1640.7H-1240.65V1623.58ZM-1202.96 1623.58H-1188.93V1640.7H-1202.96V1623.58ZM-1162.17 1623.58H-1148.69V1640.7H-1162.17V1623.58ZM-784.496 1596.99V1545.09H-677.059V1596.99H-784.496ZM-968.233 1596.99V1545.09H-824.376V1596.99H-968.233ZM-677.059 1505.03H-784.496V1388.13H-677.059V1505.03ZM-824.558 1505.03H-968.415V1388.13H-824.558V1505.03ZM-1008.29 1505.03H-1115.73V1388.13H-1008.29V1505.03ZM-1115.73 1544.91H-1008.29V1596.81H-1115.73V1544.91ZM-1122.1 1623.58H-1108.63V1640.7H-1122.1V1623.58ZM-1082.04 1623.58H-1068.57V1640.7H-1082.04V1623.58ZM-1041.98 1623.58H-1028.51V1640.7H-1041.98V1623.58ZM-1001.92 1623.58H-988.445V1640.7H-1001.92V1623.58ZM-961.859 1623.58H-948.384V1640.7H-961.859V1623.58ZM-921.798 1623.58H-908.323V1640.7H-921.798V1623.58ZM-881.736 1623.58H-868.261V1640.7H-881.736V1623.58ZM-841.675 1623.58H-828.2V1640.7H-841.675V1623.58ZM-801.614 1623.58H-788.139V1640.7H-801.614V1623.58ZM-761.552 1623.58H-748.077V1640.7H-761.552V1623.58ZM-721.491 1623.58H-708.016V1640.7H-721.491V1623.58ZM-681.43 1623.58H-667.954V1640.7H-681.43V1623.58ZM-641.368 1623.58H-627.893V1640.7H-641.368V1623.58ZM-637.544 1596.99V1348.25H-1156.16V1596.99H-1203.5V1175.26H-590.199V1596.99H-637.544ZM-1668.21 694.883L-1526 599.464L-1376.49 694.883L-1344.99 714.913V897.193H-1379.59V733.123L-1526 640.254L-1608.12 695.065L-1618.32 701.802L-1658.2 728.389L-1665.66 733.487V893.733L-1667.67 897.193H-1697.53V714.731L-1692.43 711.454L-1678.05 701.62L-1668.21 694.883ZM-1094.97 957.285L-1083.68 936.89H-1042.16V937.254L-1053.82 957.285L-1129.75 1092.22H-1171.09L-1095.15 957.285H-1094.97ZM-579.637 755.157L-665.041 906.844V833.277L-621.155 754.975H-579.637V755.157ZM87.749 1092.22L184.26 920.683V991.519L125.625 1092.22H87.749ZM19.4624 1092.22L184.26 799.407V866.418L57.1565 1092.22H19.4624ZM-48.824 1092.22L133.637 768.086H171.332L-11.1299 1092.22H-48.824ZM-117.11 1092.22L65.3511 768.086H103.045L-79.4163 1092.22H-117.11ZM-185.397 1092.22L-109.462 957.285L-98.1724 936.89H-60.2959L-147.703 1092.22H-185.397ZM-253.501 1092.22L-177.567 957.285L-166.277 936.89H-128.4V937.254L-140.054 957.285L-215.989 1092.22H-253.501ZM-321.605 1092.22L-245.671 957.285L-234.381 936.89H-196.505V937.254L-208.159 957.285L-284.094 1092.22H-321.605ZM-389.71 1092.22L-313.775 957.285L-302.667 937.254V936.89H-264.609V937.254L-276.263 957.285L-352.198 1092.22H-389.71ZM-458.178 1092.22L-382.244 957.285L-371.136 937.254V936.89H-333.078L-344.368 957.285L-420.302 1092.22H-458.178ZM-526.283 1092.22L-450.348 957.285L-439.058 936.89H-401.182V937.254L-412.836 957.285L-488.771 1092.22H-526.283ZM-594.387 1092.22L-472.382 875.523L-453.444 842.017V908.847L-472.382 942.353L-556.693 1092.22H-594.205H-594.387ZM-666.498 1092.22L-476.934 755.339L-471.836 759.527L-453.444 774.459V787.752L-455.629 791.576L-462.367 803.231L-472.564 821.076L-625.161 1092.22H-666.68H-666.498ZM-269.89 717.099V707.083L-261.331 701.438L-251.134 694.701L-240.572 687.599L-232.378 692.698L-229.1 694.883H-228.918L-223.819 698.343L-218.72 701.62L-217.628 702.349L-206.156 709.451L-201.604 712.182V781.561H-269.708V717.099H-269.89ZM-175.017 729.117L-166.459 734.398H-165.912L-149.159 745.324L-145.518 747.691L-134.592 754.611V781.379H-175.017V728.935V729.117ZM-340.726 754.429L-321.241 741.318L-311.044 734.58L-301.211 727.842L-296.476 724.565V781.197H-340.726V754.064V754.429ZM-340.726 808.147H-296.476V896.829H-340.726V808.147ZM-269.89 808.147H-201.785V896.829H-269.89V808.147ZM-175.017 808.147H-134.592V896.829H-175.017V808.147ZM-94.5303 769.543V732.941L-101.996 728.024L-107.095 724.747L-112.922 721.105L-129.493 710.725L-144.061 701.438L-149.159 698.161L-154.44 694.701L-159.539 691.423L-180.662 678.13L-181.937 677.401L-201.604 664.837L-204.517 663.016L-212.711 657.735L-240.936 639.889L-323.062 694.701L-333.26 701.438L-373.139 728.024L-380.605 733.123V897.011H-413.382V730.028L-412.29 728.207H-413.382V714.549L-393.898 701.438L-384.065 694.701L-241.847 599.282L-196.323 628.235L-188.128 633.516L-165.548 647.902L-162.635 649.723L-149.524 657.917L-139.144 664.655L-137.869 665.383L-118.385 677.948L-115.471 679.769L-97.4438 691.241L-92.7092 694.519L-87.0642 697.978L-81.9656 701.256L-63.0276 713.275L-61.2065 714.549V896.829H-94.7124V769.543H-94.5303ZM-20.9629 801.045L-2.38916 767.904H35.4871L-20.9629 868.239V801.045ZM184.989 1044.33V1092.04H157.128L184.989 1044.33ZM-696.726 1092.04H-738.244L-548.499 754.975H-506.98L-696.726 1092.04ZM-809.99 1092.04L-734.056 957.103L-722.948 937.072V936.708H-681.247L-768.654 1092.04H-809.99ZM-882.101 1092.04L-806.166 957.103L-794.876 936.708H-753.358L-764.648 957.103L-840.582 1092.04H-882.101ZM-954.029 1092.04L-878.094 957.103L-866.987 937.072V936.708H-825.286V937.072L-836.941 957.103L-912.875 1092.04H-954.211H-954.029ZM-1025.96 1092.04L-950.023 957.103L-938.915 937.072V936.708H-897.215V937.072L-908.869 957.103L-984.803 1092.04H-1026.14H-1025.96ZM-1098.07 1092.04L-1022.13 957.103L-1011.03 937.072V936.708H-969.325V937.072L-980.615 957.103L-1056.55 1092.04H-1098.07ZM-1056.91 721.833V714.367L-1050.18 709.815L-1047.99 708.54L-1037.43 701.438L-1027.6 694.701L-885.014 599.282L-735.512 694.701L-724.951 701.438L-704.192 714.731V897.011H-738.062V732.941L-742.796 730.028L-745.528 728.207L-765.194 715.642L-787.592 701.438L-797.972 694.701L-884.468 639.889L-966.594 694.701L-976.791 701.438L-1016.67 728.024L-1024.14 733.123V897.011H-1056.91V722.015V721.833ZM-913.057 722.015V706.901L-904.863 701.256L-894.665 694.519L-884.104 687.417L-872.632 694.519L-862.252 701.256L-844.953 712.182V781.379H-913.057V722.015ZM-818.185 728.935L-815.271 730.756L-809.444 734.398L-784.679 750.058L-777.941 754.246V781.015H-818.185V728.571V728.935ZM-984.075 754.246L-965.501 741.682L-954.575 734.58L-944.742 727.842L-939.643 724.565V781.197H-984.075V754.064V754.246ZM-984.075 807.965H-939.643V896.646H-984.075V807.965ZM-912.875 807.965H-844.771V896.646H-912.875V807.965ZM-818.002 809.422L-817.274 807.965H-777.759V896.646H-818.002V809.604V809.422ZM462.505 678.13H424.811L591.43 382.222V449.234L462.505 678.13ZM-1096.61 907.208L-1115.55 940.714L-1200.41 1091.67H-1241.92L-1115.37 866.965L-1096.43 833.095V907.208H-1096.61ZM-1530 1091.67L-1454.07 956.556L-1442.96 936.526L-1401.44 936.344L-1412.91 956.556L-1488.85 1091.67H-1530.18H-1530ZM-1601.93 1091.67L-1526 956.738L-1514.89 936.708V936.344H-1473.37L-1484.84 956.556L-1560.78 1091.67H-1601.93ZM-1674.04 1091.67L-1598.11 956.738L-1587 936.708V936.344H-1544.93V936.708L-1556.59 956.738L-1632.52 1091.67H-1674.04ZM-1553.86 896.464V807.783H-1485.75V896.464H-1553.86ZM-1580.44 896.464H-1624.69V807.783H-1580.44V896.464ZM-1458.98 896.464V807.783H-1418.56V896.464H-1458.98ZM-1418.56 781.197H-1458.98V728.571L-1418.56 754.246V781.197ZM-1485.75 781.197H-1553.86V706.537L-1545.3 700.892L-1535.1 694.154L-1524.54 687.053L-1485.57 711.636V781.015L-1485.75 781.197ZM-1580.63 781.197H-1624.88V754.064L-1619.59 750.422L-1595.38 734.398L-1585.54 727.66L-1580.81 724.383V781.197H-1580.63ZM-1617.23 936.344V936.708L-1628.88 956.738L-1704.82 1091.67H-1746.15L-1670.22 956.738L-1659.11 936.708V936.344H-1617.41H-1617.23ZM-1689.34 936.708L-1700.81 956.738L-1776.74 1091.67H-1818.08L-1742.15 956.556L-1731.04 936.526L-1689.52 936.344V936.708H-1689.34ZM-1736.68 892.276L-1755.62 926.146L-1848.85 1091.85H-1890.37L-1755.62 852.215L-1736.68 818.709V892.458V892.276ZM-1458.26 1091.67L-1382.32 956.556L-1371.21 936.526L-1329.51 936.344L-1416.92 1091.67H-1458.44H-1458.26ZM-1760.17 754.429L-1740.14 770.817L-1747.43 783.746L-1754.16 795.4L-1755.44 797.768L-1920.78 1091.49H-1962.12L-1772.19 754.246H-1759.99L-1760.17 754.429ZM-1992.71 1091.67H-2034.23L-1844.3 754.429H-1802.78L-1992.53 1091.67H-1992.71ZM561.384 678.858L591.248 627.689V677.948L561.384 678.858ZM530.063 679.769L491.276 680.861L591.248 503.317V574.699L530.063 679.587V679.769ZM394.037 678.312H356.16L542.628 347.441H580.322L394.037 678.312ZM325.568 678.494H287.874L474.341 347.259H512.035L325.568 678.494ZM257.099 678.676H219.223L405.873 347.259H443.567L256.917 678.676H257.099ZM188.631 678.858H150.937L337.768 347.259H375.463L188.631 678.858ZM120.162 679.04H82.2859L269.3 347.077H306.994L120.162 679.04ZM51.6938 679.222H13.9998L201.013 347.077H238.708L51.6938 679.222ZM3.80225 642.985L-18.5957 628.964L-24.0588 625.504L132.545 347.259H170.239L3.62012 643.167L3.80225 642.985ZM-46.4565 611.118L-68.8545 597.097L-74.3174 593.637L64.4404 347.077H102.135L-46.4565 611.118ZM33.8481 347.077L-96.8977 579.251L-116.2 567.051L-119.114 565.23L-121.663 563.591L0.342285 347.077H33.8481ZM-1120.65 754.064L-1118.1 756.25L-1096.79 773.549V778.647L-1102.07 787.934L-1108.81 799.589L-1115.73 812.153L-1272.88 1091.31H-1314.22L-1124.29 754.064H-1120.65ZM-1344.63 1091.31H-1386.15L-1196.22 754.064H-1154.7L-1344.45 1091.31H-1344.63ZM-1874.89 754.064L-2064.82 1091.31H-2106.34L-1916.41 754.064H-1874.89ZM-1227.9 1174.16V1595.9H-1275.25V1347.15H-1794.77V1595.9H-1842.12V1174.16H-1228.81H-1227.9ZM-1841.21 1666.37H-1827.18V1801.31H-1841.21V1666.37ZM-1800.42 1666.37H-1786.94V1801.31H-1800.42V1666.37ZM-1760.36 1666.37H-1746.88V1801.31H-1760.36V1666.37ZM-1720.29 1666.37H-1706.82V1801.31H-1720.29V1666.37ZM-1680.23 1666.37H-1666.76V1801.31H-1680.23V1666.37ZM-1640.17 1666.37H-1626.7V1801.31H-1640.17V1666.37ZM-1600.11 1666.37H-1586.63V1801.31H-1600.11V1666.37ZM-1560.05 1666.37H-1546.57V1801.31H-1560.05V1666.37ZM-1519.99 1666.37H-1506.51V1801.31H-1519.99V1666.37ZM-1479.93 1666.37H-1466.45V1801.31H-1479.93V1666.37ZM-1439.86 1666.37H-1426.39V1801.31H-1439.86V1666.37ZM-1399.8 1666.37H-1386.33V1801.31H-1399.8V1666.37ZM-1359.74 1666.37H-1346.27V1801.31H-1359.74V1666.37ZM-1319.68 1666.37H-1306.2V1801.31H-1319.68V1666.37ZM-1279.62 1666.37H-1266.14V1801.31H-1279.62V1666.37ZM-1239.56 1666.37H-1228.63V1801.31H-1239.56V1666.37ZM-1201.86 1666.37H-1187.84V1801.31H-1201.86V1666.37ZM-1161.07 1666.37H-1147.6V1801.31H-1161.07V1666.37ZM-1121.01 1666.37H-1107.54V1801.31H-1121.01V1666.37ZM-1080.95 1666.37H-1067.48V1801.31H-1080.95V1666.37ZM-1040.89 1666.37H-1027.41V1801.31H-1040.89V1666.37ZM-1000.83 1666.37H-987.353V1801.31H-1000.83V1666.37ZM-960.767 1666.37H-947.291V1801.31H-960.767V1666.37ZM-920.705 1666.37H-907.23V1801.31H-920.705V1666.37ZM-880.644 1666.37H-867.169V1801.31H-880.644V1666.37ZM-840.582 1666.37H-827.107V1801.31H-840.582V1666.37ZM-800.521 1666.37H-787.046V1801.31H-800.521V1666.37ZM-760.46 1666.37H-746.984V1801.31H-760.46V1666.37ZM-720.398 1666.37H-706.923V1801.31H-720.398V1666.37ZM-680.337 1666.37H-666.862V1801.31H-680.337V1666.37ZM-640.276 1666.37H-626.8V1801.31H-640.276V1666.37ZM-600.214 1666.37H-589.288V1801.31H-600.214V1666.37ZM-562.52 1666.37H-548.499V1801.31H-562.52V1666.37ZM-521.73 1666.37H-508.255V1801.31H-521.73V1666.37ZM-481.669 1666.37H-468.194V1801.31H-481.669V1666.37ZM-441.608 1666.37H-428.132V1801.31H-441.608V1666.37ZM-401.546 1666.37H-388.071V1801.31H-401.546V1666.37ZM-361.485 1666.37H-348.01V1801.31H-361.485V1666.37ZM-321.423 1666.37H-307.948V1801.31H-321.423V1666.37ZM-281.362 1666.37H-267.887V1801.31H-281.362V1666.37ZM-241.301 1666.37H-227.825V1801.31H-241.301V1666.37ZM-201.239 1666.37H-187.764V1801.31H-201.239V1666.37ZM-161.178 1666.37H-147.703V1801.31H-161.178V1666.37ZM-121.116 1666.37H-107.641V1801.31H-121.116V1666.37ZM-81.0552 1666.37H-67.5798V1801.31H-81.0552V1666.37ZM-40.9937 1666.37H-27.5186V1801.31H-40.9937V1666.37ZM-0.932373 1666.37H12.543V1801.31H-0.932373V1666.37ZM39.1292 1666.37H50.0549V1801.31H39.1292V1666.37ZM50.0549 1639.78H39.1292V1622.67H50.0549V1639.78ZM50.0549 1595.9H2.70947V1347.15H-515.903V1595.9H-563.249V1174.16H50.0549V1595.9ZM1669.26 348.17L1811.12 600.374L1783.44 617.856L1631.57 347.988H1669.45L1669.26 348.17ZM3048.65 1623.58V1640.7H3035.17V1623.58H3048.65ZM3075.24 1623.58H3088.71V1640.7H3075.24V1623.58ZM3115.3 1623.58H3128.77V1640.7H3115.3V1623.58ZM3189.05 1596.99V1545.09H3332.9V1596.99H3189.05ZM3155.54 1623.58H3169.02V1640.7H3155.54V1623.58ZM3195.6 1623.58H3209.08V1640.7H3195.6V1623.58ZM3235.66 1623.58H3249.14V1640.7H3235.66V1623.58ZM3275.72 1623.58H3289.2V1640.7H3275.72V1623.58ZM3315.79 1623.58H3329.26V1640.7H3315.79V1623.58ZM3355.85 1623.58H3369.32V1640.7H3355.85V1623.58ZM3395.91 1623.58H3409.38V1640.7H3395.91V1623.58ZM3435.97 1623.58H3449.45V1640.7H3435.97V1623.58ZM3476.03 1623.58H3489.51V1640.7H3476.03V1623.58ZM3516.09 1623.58H3529.57V1640.7H3516.09V1623.58ZM3372.42 1596.99V1545.09H3479.86V1596.99H3372.42ZM3479.86 1505.03H3372.42V1388.13H3479.86V1505.03ZM3332.36 1505.03H3188.5V1388.13H3332.36V1505.03ZM3148.62 1505.03H3041.18V1388.13H3148.62V1505.03ZM3041.18 1544.91H3148.62V1596.81H3041.18V1544.91ZM3008.04 1623.58V1640.7H2994.57V1623.58H3008.04ZM2967.98 1640.7H2953.96V1623.58H2967.98V1640.7ZM2927.19 1640.7H2916.26V1623.58H2927.19V1640.7ZM1674.18 1623.58H1688.2V1640.7H1674.18V1623.58ZM1714.97 1623.58H1728.44V1640.7H1714.97V1623.58ZM2092.82 1596.99V1545.09H2200.26V1596.99H2092.82ZM1909.08 1596.99V1545.09H2052.94V1596.99H1909.08ZM2200.26 1505.03H2092.82V1388.13H2200.26V1505.03ZM2052.76 1505.03H1908.9V1388.13H2052.76V1505.03ZM1869.02 1505.03H1761.59V1388.13H1869.02V1505.03ZM1761.59 1544.91H1869.02V1596.81H1761.59V1544.91ZM1755.21 1623.58H1768.69V1640.7H1755.21V1623.58ZM1795.27 1623.58H1808.75V1640.7H1795.27V1623.58ZM1835.34 1623.58H1848.81V1640.7H1835.34V1623.58ZM1875.4 1623.58H1888.87V1640.7H1875.4V1623.58ZM1915.46 1623.58H1928.93V1640.7H1915.46V1623.58ZM1955.52 1623.58H1969V1640.7H1955.52V1623.58ZM1995.58 1623.58H2009.06V1640.7H1995.58V1623.58ZM2035.64 1623.58H2049.12V1640.7H2035.64V1623.58ZM2075.7 1623.58H2089.18V1640.7H2075.7V1623.58ZM2115.77 1623.58H2129.24V1640.7H2115.77V1623.58ZM2155.83 1623.58H2169.3V1640.7H2155.83V1623.58ZM2195.89 1623.58H2209.36V1640.7H2195.89V1623.58ZM2235.95 1623.58H2249.42V1640.7H2235.95V1623.58ZM2276.01 1623.58H2286.94V1640.7H2276.01V1623.58ZM2313.71 1623.58H2327.73V1640.7H2313.71V1623.58ZM2354.49 1623.58H2367.97V1640.7H2354.49V1623.58ZM2732.16 1596.99V1545.09H2839.6V1596.99H2732.16ZM2548.43 1596.99V1545.09H2692.29V1596.99H2548.43ZM2839.6 1505.03H2732.16V1388.13H2839.6V1505.03ZM2692.1 1505.03H2548.25V1388.13H2692.1V1505.03ZM2508.37 1505.03H2400.93V1388.13H2508.37V1505.03ZM2400.93 1544.91H2508.37V1596.81H2400.93V1544.91ZM2394.56 1623.58H2408.03V1640.7H2394.56V1623.58ZM2434.62 1623.58H2448.09V1640.7H2434.62V1623.58ZM2474.68 1623.58H2488.15V1640.7H2474.68V1623.58ZM2514.74 1623.58H2528.22V1640.7H2514.74V1623.58ZM2554.8 1623.58H2568.28V1640.7H2554.8V1623.58ZM2594.86 1623.58H2608.34V1640.7H2594.86V1623.58ZM2634.92 1623.58H2648.4V1640.7H2634.92V1623.58ZM2674.99 1623.58H2688.46V1640.7H2674.99V1623.58ZM2715.05 1623.58H2728.52V1640.7H2715.05V1623.58ZM2755.11 1623.58H2768.58V1640.7H2755.11V1623.58ZM2795.17 1623.58H2808.65V1640.7H2795.17V1623.58ZM2835.23 1623.58H2848.71V1640.7H2835.23V1623.58ZM2875.29 1623.58H2888.77V1640.7H2875.29V1623.58ZM2879.12 1596.99V1348.25H2360.5V1596.99H2313.16V1175.26H2926.46V1596.99H2879.12ZM3512.27 1092.4L3424.86 937.254H3466.2L3553.6 1092.58H3512.27V1092.4ZM3440.34 1092.4L3352.93 937.254H3394.27L3481.68 1092.58H3440.34V1092.4ZM3368.23 1092.4L3280.82 937.254H3322.34L3409.75 1092.58H3368.23V1092.4ZM3296.3 1092.4L3208.9 937.254H3250.23L3337.64 1092.58H3296.3V1092.4ZM3162.82 897.193V808.511H3203.25V897.193H3162.82ZM3369.32 892.822V897.193H3324.89V808.511H3369.32V892.64V892.822ZM3298.12 715.46V734.034V781.925H3230.02V715.46V712.728L3269.17 687.963L3298.12 707.447V715.46ZM3369.32 764.99V781.925H3324.89V759.345V725.293L3360.4 748.784L3369.5 754.975V765.172L3369.32 764.99ZM3173.2 748.784H3174.48V748.237L3203.25 729.845V781.925H3162.82V755.339L3173.2 748.601V748.784ZM3230.02 897.375V808.694H3298.12V897.375H3230.02ZM3089.44 779.194V715.278L3270.26 600.01L3441.98 715.096V897.557H3409.2V733.852L3392.08 722.379L3381.89 715.642L3269.53 640.618L3150.99 715.642L3140.43 722.379L3122.76 733.487V897.557H3089.26V779.376L3089.44 779.194ZM3178.3 937.254L3265.71 1092.58H3224.37L3136.97 937.436H3178.3V937.254ZM3584.2 1092.58L3482.04 911.032V836.919L3625.9 1092.58H3584.38H3584.2ZM3106.01 937.254L3193.42 1092.58H3152.08L3064.67 937.254H3106.01ZM2936.11 1092.58L2841.79 925.054V851.486L2977.27 1092.4H2935.93L2936.11 1092.58ZM2864.19 1092.58L2776.78 937.436H2818.11L2905.52 1092.77H2864.19V1092.58ZM2792.07 1092.58L2704.67 937.436H2746.19L2833.59 1092.77H2792.07V1092.58ZM2720.15 1092.58L2632.74 937.436H2674.08L2761.48 1092.77H2720.15V1092.58ZM2648.22 1092.58L2560.81 937.436H2602.15L2689.55 1092.77H2648.22V1092.58ZM2523.12 897.375V808.694H2563.54V897.375H2523.12ZM2729.25 897.375H2685V808.694H2729.25V897.375ZM2590.13 897.375V808.694H2658.23V897.375H2590.13ZM2658.23 715.46V729.299V782.107H2590.13V712.91L2629.1 688.145L2658.42 707.63V715.642L2658.23 715.46ZM2729.07 779.194V782.107H2684.82V725.475L2708.86 741.5L2719.96 748.966L2729.07 755.157V779.376V779.194ZM2528.22 752.061L2533.31 748.784L2563.36 729.663V782.107H2522.93V755.521L2528.22 752.061ZM2449.37 897.375V715.096L2630.19 599.828L2801.73 714.913V897.375H2768.95V795.947V733.669L2751.83 722.197L2741.63 715.46L2629.46 640.436L2510.92 715.46L2500.35 722.197L2482.87 733.305V897.375H2449.37ZM2530.04 937.254L2617.44 1092.58H2575.92L2488.52 937.436H2530.04V937.254ZM3007.86 1092.58L2841.6 797.586V774.823L2861.27 758.799L3049.2 1092.58H3007.68H3007.86ZM2408.03 794.308H2409.31V797.039L2408.03 794.308H2407.67H2407.85H2408.03ZM2457.74 937.254L2545.15 1092.58H2503.81L2416.41 937.254H2457.74ZM2291.49 1092.58L2198.07 926.693V859.499L2329 1092.4H2291.49V1092.58ZM2223.38 1092.58L2135.98 937.436H2173.49L2260.9 1092.77H2223.38V1092.58ZM2154.92 1092.58L2067.51 937.436H2105.39L2192.79 1092.77H2154.92V1092.58ZM2086.81 1092.58L1999.41 937.436H2036.92L2124.32 1092.77H2086.81V1092.58ZM2018.71 1092.58L1931.3 937.436H1968.81L2056.22 1092.77H2018.71V1092.58ZM1950.24 1092.58L1862.83 937.436H1900.71L1988.12 1092.77H1950.24V1092.58ZM1882.13 1092.58L1794.73 937.254H1832.42L1919.83 1092.58H1882.32H1882.13ZM1813.85 1092.58L1631.39 768.45H1669.08L1851.54 1092.58H1813.85ZM1745.56 1092.58L1563.1 768.45H1600.79L1783.26 1092.58H1745.56ZM1677.28 1092.58L1547.26 861.684V794.672L1714.97 1092.58H1677.28ZM1608.81 1092.58L1547.26 986.967V915.949L1646.68 1092.58H1608.81ZM1578.03 1092.58H1547.26V1039.77L1578.03 1092.58ZM1699.49 768.45H1737.19L1765.59 819.073V885.903L1699.49 768.45ZM2158.19 897.375H2125.42V797.586V733.669L2108.3 722.197L2098.1 715.46L1985.75 640.436L1953.52 661.013L1945.32 666.111L1922.74 680.497L1914.55 685.778L1895.06 697.978L1893.42 699.071L1879.4 707.812L1878.31 708.54L1872.48 712.182L1867.38 715.46L1861.74 718.92L1856.64 722.197L1838.98 733.305V755.157V773.731V897.375H1805.47V768.45V755.521V733.487V715.642L1810.02 712.364L1831.15 699.071L1851.91 685.596L1856.09 682.864L1862.29 678.858L1878.49 668.479L1903.26 652.818L1906.17 650.997L1928.75 636.612L1936.95 631.331L1986.29 599.828L2158.01 714.913V897.375H2158.19ZM1946.23 897.375V808.694H2014.34V842.746V897.375H1946.23ZM1879.04 844.749V808.876H1919.46V897.557H1879.04V844.931V844.749ZM1879.04 755.521H1879.59L1889.42 748.784L1892.33 747.145L1900.34 741.864L1919.46 729.845V755.157V781.925H1879.04V755.339V755.521ZM2085.54 780.833V782.107H2041.11V768.632V755.521V725.475L2065.14 741.135L2076.61 748.784L2085.72 754.975V780.833H2085.54ZM2014.34 775.552V782.107H1946.23V755.521V730.938V713.093L1957.34 705.991L1968.45 698.889L1973.18 695.975L1985.2 688.327L2014.16 707.812V755.703V775.734L2014.34 775.552ZM2040.92 897.557V890.455V808.876H2085.35V897.557H2040.92ZM2359.78 1092.77L2198.07 805.78V775.005L2214.64 761.53L2401.11 1092.77H2359.59H2359.78ZM3728.05 1092.77L3538.31 755.703H3579.83L3769.57 1092.77H3728.05ZM3697.46 1092.77H3656.13L3481.68 783.018V775.005L3505.35 755.703H3507.72L3697.46 1092.77ZM3003.67 755.703L3049.2 836.736V910.304L2962.15 755.703H3003.67ZM3121.49 1092.77H3079.97L2890.22 755.703H2931.74L3121.49 1092.77ZM2355.59 755.703L2409.31 851.304V925.054L2313.89 755.703H2355.41H2355.59ZM2473.4 1092.77H2431.89L2242.14 755.703H2283.66L2473.4 1092.77ZM1270.11 679.04L1141.36 450.326V383.315L1307.8 678.858H1270.11V679.04ZM1141.36 504.591L1239.51 679.04H1201.46L1141.36 576.155V504.773V504.591ZM1141.36 628.781L1170.68 678.858H1141.36V628.781ZM3800.16 1092.58L3610.42 755.521H3651.94L3841.68 1092.58H3800.16ZM1759.58 632.606L1732.09 649.905V650.815L1561.83 348.352H1599.52L1759.58 632.606ZM1717.34 679.04H1679.64L1493.54 348.534H1531.23L1717.34 679.04ZM1649.05 679.04H1611.36L1425.25 348.534H1462.95L1649.05 679.04ZM1580.76 679.04H1543.07L1356.97 348.534H1394.66L1580.76 679.04ZM1512.48 679.04H1474.78L1288.68 348.534H1326.37L1512.48 679.04ZM1444.19 679.04H1406.5L1220.39 348.534H1258.09L1444.19 679.04ZM1375.9 679.04H1338.21L1152.11 348.534H1189.8L1375.9 679.04ZM2286.39 1175.62V1597.36H2239.04V1348.61H1720.43V1597.36H1673.09V1175.62H2286.39ZM1673.09 1667.83H1687.11V1802.76H1673.09V1667.83ZM1713.88 1667.83H1727.35V1802.76H1713.88V1667.83ZM1753.94 1667.83H1767.41V1802.76H1753.94V1667.83ZM1794 1667.83H1807.47V1802.76H1794V1667.83ZM1834.06 1667.83H1847.54V1802.76H1834.06V1667.83ZM1874.12 1667.83H1887.6V1802.76H1874.12V1667.83ZM1914.18 1667.83H1927.66V1802.76H1914.18V1667.83ZM1954.25 1667.83H1967.72V1802.76H1954.25V1667.83ZM1994.31 1667.83H2007.78V1802.76H1994.31V1667.83ZM2034.37 1667.83H2047.84V1802.76H2034.37V1667.83ZM2074.43 1667.83H2087.9V1802.76H2074.43V1667.83ZM2114.49 1667.83H2127.97V1802.76H2114.49V1667.83ZM2154.55 1667.83H2168.03V1802.76H2154.55V1667.83ZM2194.61 1667.83H2208.09V1802.76H2194.61V1667.83ZM2234.67 1667.83H2248.15V1802.76H2234.67V1667.83ZM2274.74 1667.83H2285.66V1802.76H2274.74V1667.83ZM2312.43 1667.83H2326.45V1802.76H2312.43V1667.83ZM2353.22 1667.83H2366.7V1802.76H2353.22V1667.83ZM2393.28 1667.83H2406.76V1802.76H2393.28V1667.83ZM2433.34 1667.83H2446.82V1802.76H2433.34V1667.83ZM2473.4 1667.83H2486.88V1802.76H2473.4V1667.83ZM2513.47 1667.83H2526.94V1802.76H2513.47V1667.83ZM2553.53 1667.83H2567V1802.76H2553.53V1667.83ZM2593.59 1667.83H2607.06V1802.76H2593.59V1667.83ZM2633.65 1667.83H2647.12V1802.76H2633.65V1667.83ZM2673.71 1667.83H2687.19V1802.76H2673.71V1667.83ZM2713.77 1667.83H2727.25V1802.76H2713.77V1667.83ZM2753.83 1667.83H2767.31V1802.76H2753.83V1667.83ZM2793.9 1667.83H2807.37V1802.76H2793.9V1667.83ZM2833.96 1667.83H2847.43V1802.76H2833.96V1667.83ZM2874.02 1667.83H2887.49V1802.76H2874.02V1667.83ZM2914.08 1667.83H2925.01V1802.76H2914.08V1667.83ZM2951.77 1667.83H2965.79V1802.76H2951.77V1667.83ZM2992.56 1667.83H3006.04V1802.76H2992.56V1667.83ZM3032.62 1667.83H3046.1V1802.76H3032.62V1667.83ZM3072.69 1667.83H3086.16V1802.76H3072.69V1667.83ZM3112.75 1667.83H3126.22V1802.76H3112.75V1667.83ZM3152.81 1667.83H3166.28V1802.76H3152.81V1667.83ZM3192.87 1667.83H3206.35V1802.76H3192.87V1667.83ZM3232.93 1667.83H3246.41V1802.76H3232.93V1667.83ZM3272.99 1667.83H3286.47V1802.76H3272.99V1667.83ZM3313.05 1667.83H3326.53V1802.76H3313.05V1667.83ZM3353.12 1667.83H3366.59V1802.76H3353.12V1667.83ZM3393.18 1667.83H3406.65V1802.76H3393.18V1667.83ZM3433.24 1667.83H3446.71V1802.76H3433.24V1667.83ZM3473.3 1667.83H3486.77V1802.76H3473.3V1667.83ZM3513.36 1667.83H3526.84V1802.76H3513.36V1667.83ZM3553.42 1667.83H3564.35V1802.76H3553.42V1667.83ZM3564.35 1641.24H3553.42V1624.12H3564.35V1641.24ZM3564.35 1597.36H3517V1348.61H2998.39V1597.36H2951.05V1175.62H3564.35V1597.36ZM3905.42 1092.77H3870.45L3680.71 755.703H3715.85L3905.42 1092.77ZM1855.55 571.057L1830.78 586.717L1696.76 348.716H1730.27L1855.55 571.057ZM-1989.43 755.157H-1947.92L-2137.66 1092.4H-2179L-1989.43 755.157ZM-1681.51 2048.59C-1643.45 2016.91 -1594.46 1997.79 -1541.11 1997.79C-1487.76 1997.79 -1439.14 2016.91 -1401.08 2048.59H-1400.9L-1483.75 2131.45H-1483.93C-1499.96 2119.43 -1519.62 2112.51 -1541.11 2112.51C-1562.6 2112.51 -1582.63 2119.61 -1598.47 2131.63L-1681.51 2048.59ZM-1541.11 2152.39C-1514.16 2152.39 -1491.58 2171.51 -1486.3 2197.18H-1596.1C-1590.82 2171.69 -1568.42 2152.39 -1541.29 2152.39H-1541.11ZM-1446.06 2197.18C-1447.33 2184.44 -1451.34 2172.42 -1457.53 2161.68L-1372.49 2076.64C-1344.99 2109.96 -1326.96 2151.48 -1322.78 2197H-1446.06V2197.18ZM-1759.81 2197.18C-1755.62 2151.66 -1737.41 2110.14 -1709.73 2076.82L-1624.88 2161.68C-1630.7 2172.42 -1635.07 2184.26 -1636.35 2197.18H-1759.63H-1759.81ZM-1321.87 2237.06V2501.83H-1443.69V2237.06H-1321.87ZM-1760.54 2237.06H-1639.26V2501.83H-1760.54V2237.06ZM-1599.38 2237.06H-1483.75V2501.83H-1599.38V2237.06ZM-1032.15 2048.41C-994.09 2016.73 -945.106 1997.61 -891.752 1997.61C-838.397 1997.61 -789.777 2016.73 -751.719 2048.41L-834.755 2131.63C-850.78 2119.43 -870.446 2112.51 -891.934 2112.51C-913.421 2112.51 -933.27 2119.43 -949.294 2131.63L-1032.33 2048.59L-1032.15 2048.41ZM-891.752 2152.21C-864.801 2152.21 -842.221 2171.33 -836.941 2197H-946.745C-941.464 2171.51 -918.702 2152.21 -891.934 2152.21H-891.752ZM-796.333 2197C-797.608 2184.07 -801.978 2172.24 -807.805 2161.49L-723.13 2076.82C-695.087 2110.14 -677.241 2151.66 -673.053 2197H-796.333ZM-1110.09 2197C-1105.9 2151.48 -1087.69 2109.96 -1060.37 2076.64L-975.334 2161.68C-981.526 2172.24 -985.714 2184.26 -986.989 2197H-1110.09ZM-672.143 2236.88V2501.65H-793.783V2236.88H-672.143ZM-1110.81 2236.88H-989.356V2501.65H-1110.81V2236.88ZM-949.477 2236.88H-833.845V2501.65H-949.477V2236.88ZM-242.211 1997.42C-188.857 1997.42 -139.873 2016.54 -101.814 2048.23L-184.85 2131.27C-200.875 2119.06 -220.542 2112.15 -242.029 2112.15C-263.516 2112.15 -283.365 2119.06 -299.208 2131.27L-382.244 2048.23C-344.186 2016.54 -295.201 1997.42 -241.847 1997.42H-242.211ZM-242.211 2152.21C-215.079 2152.21 -192.316 2171.33 -187.036 2197H-297.022C-291.742 2171.51 -268.979 2152.21 -242.211 2152.21ZM-146.792 2197C-148.067 2184.07 -152.437 2172.24 -158.264 2161.49L-73.5891 2076.82C-45.5461 2110.14 -27.7007 2151.66 -23.5125 2197H-146.792ZM-460.546 2197C-456.357 2151.48 -438.148 2109.96 -410.651 2076.64L-325.612 2161.68C-331.803 2172.42 -335.809 2184.26 -337.084 2197.18H-460.364L-460.546 2197ZM-22.6018 2236.88V2501.65H-142.968V2236.88H-22.6018ZM-461.274 2236.88H-338.358V2501.65H-461.274V2236.88ZM-298.479 2236.88H-182.847V2501.65H-298.479V2236.88ZM17.2773 2501.65V2230.14H42.5889L55.8818 2227.78V2214.48C55.8818 2051.69 -76.5027 1919.12 -239.48 1919.12C-402.457 1919.12 -534.841 2051.69 -534.841 2216.85V2230.14H-501.335V2501.65H-632.081V2230.14H-609.501L-596.208 2227.78V2214.48C-596.208 2051.69 -728.593 1919.12 -891.57 1919.12C-1054.55 1919.12 -1186.93 2051.69 -1186.93 2216.85V2230.14H-1150.69V2501.65H-1281.8V2230.14H-1261.59L-1248.3 2227.78V2214.48C-1248.3 2051.69 -1380.86 1919.12 -1543.66 1919.12C-1706.45 1919.12 -1839.02 2051.69 -1839.02 2216.85V2230.14H-1800.42V2501.65H-1969.77V1175.26H-1868.7V1828.98H77.5515V1175.26H184.26V2502.01H16.9131L17.2773 2501.65ZM1136.99 1920.94H933.226V1608.46C933.226 1571.68 903.362 1541.82 866.579 1541.82C829.795 1541.82 800.295 1571.68 800.295 1608.46V1920.94H596.529V1696.78C596.529 1547.64 717.805 1426.37 866.579 1426.37C1015.35 1426.37 1136.99 1547.64 1136.99 1696.78V1920.94ZM596.529 1960.82H1136.99V2501.47H1025.37V2219.95C1025.37 2132.54 954.167 2061.16 866.579 2061.16C778.99 2061.16 707.79 2132.54 707.79 2219.95V2501.47H596.529V1960.82ZM1224.58 2501.47H1176.87V1696.78C1176.87 1525.43 1037.75 1386.49 866.579 1386.49C695.407 1386.49 556.467 1525.61 556.467 1696.78V2501.47H508.758V1675.48C508.758 1478.08 669.186 1317.47 866.397 1317.47C1063.61 1317.47 1224.4 1478.08 1224.4 1675.48V2501.47H1224.58ZM1264.46 2501.47V1675.48C1264.46 1456.23 1086.01 1277.59 866.579 1277.59C647.152 1277.59 468.878 1456.23 468.878 1675.48V2501.47H226.143V1306.73H288.238V1207.85H226.143V1163.05H288.238V1064.18H226.143V1014.65H288.238V915.585H226.143V866.054H288.238V768.086H598.531V768.814H697.593V669.753H630.217V624.957H697.593V526.079H630.217V476.548H697.593V377.487H630.217V347.988H1102.76V377.487H1035.38V476.548H1102.76V526.079H1035.38V624.957H1102.76V669.753H1035.38V768.814H1134.44V768.086H1441.28V866.054H1507.01V915.585H1441.28V1014.65H1507.01V1064.18H1441.28V1163.05H1507.01V1207.85H1441.28V1306.73H1507.01V2502.01H1264.28L1264.46 2501.47ZM1975.73 1997.24C2029.09 1997.24 2077.71 2016.36 2115.77 2048.05L2032.73 2131.08C2017.07 2118.88 1997.04 2111.96 1975.73 2111.96C1954.43 2111.96 1934.21 2119.06 1918.19 2131.08L1835.34 2048.23C1873.39 2016.36 1922.38 1997.06 1975.73 1997.06V1997.24ZM1975.73 2152.02C2002.68 2152.02 2025.26 2171.14 2030.54 2196.82H1920.56C1925.84 2171.33 1948.6 2152.02 1975.73 2152.02ZM2070.79 2196.82C2069.51 2183.89 2065.14 2172.06 2059.32 2161.31L2144.35 2076.27C2171.85 2109.6 2189.88 2151.11 2194.25 2196.64H2070.97L2070.79 2196.82ZM1757.03 2196.82C1761.22 2151.3 1779.43 2109.78 1806.93 2076.45L1891.97 2161.49C1885.78 2172.24 1881.77 2184.07 1880.5 2197H1757.22L1757.03 2196.82ZM2194.98 2236.7V2501.47H2072.97V2236.7H2194.98ZM1756.31 2236.7H1877.58V2501.47H1756.31V2236.7ZM1917.46 2236.7H2033.09V2501.47H1917.46V2236.7ZM2484.88 2048.05C2522.93 2016.36 2571.92 1997.24 2625.27 1997.24C2678.63 1997.24 2727.25 2016.36 2765.31 2048.05H2765.49L2682.45 2131.08H2682.27C2666.25 2118.88 2646.58 2111.96 2625.27 2111.96C2603.97 2111.96 2583.94 2118.88 2568.09 2131.08L2485.06 2048.05H2484.88ZM2625.27 2151.84C2652.22 2151.84 2674.8 2170.96 2680.08 2196.64H2570.28C2575.38 2171.14 2597.96 2151.84 2625.09 2151.84H2625.27ZM2720.33 2196.64C2719.05 2183.89 2715.05 2171.87 2708.86 2161.13L2793.9 2076.09C2821.39 2109.41 2839.42 2150.93 2843.61 2196.46H2720.33V2196.64ZM2406.57 2196.64C2410.76 2151.3 2428.97 2109.78 2456.65 2076.45L2541.33 2161.13C2535.14 2171.87 2531.13 2183.71 2529.85 2196.64H2406.57ZM2844.52 2236.52V2501.29H2723.06V2236.52H2844.52ZM2405.85 2236.52H2527.49V2501.29H2405.85V2236.52ZM2567.55 2236.52H2683.18V2501.29H2567.55V2236.52ZM3134.42 2047.86C3172.48 2016.18 3221.46 1997.06 3274.81 1997.06C3328.17 1997.06 3377.15 2016.18 3415.21 2047.86L3332.17 2130.9C3316.15 2118.7 3296.3 2111.78 3275 2111.78C3253.69 2111.78 3233.66 2118.7 3217.82 2130.9L3134.78 2047.86H3134.42ZM3274.81 2151.66C3301.76 2151.66 3324.34 2170.78 3329.63 2196.46H3219.82C3225.1 2170.96 3247.86 2151.66 3274.63 2151.66H3274.81ZM3370.23 2196.46C3368.96 2183.71 3364.95 2171.69 3358.76 2160.76L3443.44 2076.27C3471.11 2109.6 3489.32 2151.11 3493.51 2196.46H3370.23ZM3056.48 2196.46C3060.67 2150.93 3078.88 2109.41 3106.19 2076.09L3190.87 2160.76C3184.68 2171.69 3180.85 2183.71 3179.4 2196.46H3056.3H3056.48ZM3494.42 2236.34V2501.1H3374.06V2236.34H3494.42ZM3055.75 2236.34H3178.48V2501.1H3055.75V2236.34ZM3218.55 2236.34H3334.18V2501.1H3218.55V2236.34ZM3703.65 2501.1H3534.48V2229.6H3559.8L3573.09 2227.23V2213.94C3573.09 2051.14 3440.7 1918.58 3277.73 1918.58C3114.75 1918.58 2982.37 2051.14 2982.37 2216.3V2229.6H3015.87V2501.1H2884.76V2229.6H2907.71L2921 2227.23V2213.94C2921 2051.14 2788.43 1918.58 2625.64 1918.58C2462.84 1918.58 2330.28 2051.14 2330.28 2216.3V2229.6H2366.15V2501.1H2235.4V2229.6H2255.62L2268.91 2227.23V2213.94C2268.91 2051.14 2136.34 1918.58 1973.55 1918.58C1810.75 1918.58 1677.82 2051.14 1677.82 2216.3V2229.6H1716.79V2501.1H1549.26V1175.26H1648.69V1828.98H3594.94V1175.26H3703.65V2502.01V2501.1Z" fill="#014635"/>
<path d="M1092.76 288.4C1092.57 291.665 1090.35 294.978 1087.4 296.147C1083.04 297.95 1078.44 294.88 1076.54 293.565C1070.54 289.521 1068.06 283.382 1066.82 279.777C1061.8 265.233 1064.58 256.464 1063.8 248.084C1064.41 243.406 1064.72 236.707 1063.36 229.034C1062.53 224.259 1061.19 220.191 1059.78 216.902C1057.44 217.073 1055.03 217.243 1052.71 217.34C1054.42 220.873 1060.78 234.612 1055.71 250.544C1053.32 258.144 1049.16 263.504 1046.26 266.671L975.855 262.359C975.733 263.236 975.1 269.594 969.838 273.029C963.601 277.121 954.612 274.807 951.178 269.643C946.768 263.211 951.933 253.467 955.879 249.058C965.136 238.753 984.917 238.437 1006.04 247.255C1003.87 244.965 1000.07 240.264 999.217 233.492C998.291 226.232 1001.12 220.654 1003.31 216.244C1005.94 211.055 1009.13 207.328 1011.35 205.063C1010.28 204.356 1009.2 203.65 1008.11 202.943C1006.26 204.624 1003.87 207.158 1001.73 210.666C999.363 214.539 998.193 218.144 997.584 220.702C991.86 220.264 983.139 218.948 973.76 214.295C968.4 211.64 964.186 208.668 960.995 206.013C963.309 204.868 967.377 202.407 971.007 197.828C974.296 193.711 975.66 189.643 976.293 187.109C974.953 186.719 973.638 186.232 972.298 185.745C970.885 189.423 968.059 194.929 962.53 198.9C962.53 198.9 957.268 202.651 946.573 205.111C946.403 205.185 946.33 205.185 946.257 205.258H946.184C942.31 205.818 938.193 206.354 933.784 206.573C920.727 207.206 909.472 205.477 900.654 203.358C900.288 209.253 899.85 215.051 899.509 220.946C898.632 220.897 888.084 220.946 883.504 213.492C879.363 206.695 883.211 197.316 886.963 192.127C897.95 177.121 920.093 186.159 934.271 170.325C938.388 165.769 940.361 160.873 941.36 157.657C940.288 156.878 939.216 156.171 938.145 155.465C937.609 157.828 935.733 163.382 930.52 167.621C926.159 171.104 921.531 171.957 919.29 172.298C904.917 174.783 891.713 164.527 888.279 161.774C892.444 165.623 893.175 172.054 889.935 176.658C886.695 181.336 880.361 182.943 875.246 180.239C874.758 179.167 873.979 177.292 873.321 174.929V174.856C872.298 170.787 871.738 165.331 873.93 159.874C874.028 159.557 874.198 159.241 874.393 158.948C874.393 158.948 874.32 158.875 874.393 158.875C879.582 147.353 895.367 140.239 912.858 144.113C913.808 144.259 924.308 145.209 931.445 137.097C936.78 130.958 938.023 122.139 934.758 114.441C936.464 112.712 939.046 109.837 940.288 106.378C959.777 128.765 978.875 143.187 993.809 152.663C1007.43 161.262 1020.63 167.572 1032.08 173.784C1043.53 179.923 1053.25 185.94 1060.09 193.954L1060.17 194.027C1061.73 196.122 1063.19 198.12 1064.5 200.118V200.191C1075.49 216.683 1078.02 230.105 1078.14 239.728C1078.29 251.884 1074.56 261.823 1081.31 271.738C1085.99 278.729 1093.32 281.896 1092.76 288.425V288.4Z" fill="#004535"/>
<path d="M641.677 288.4C641.872 291.665 644.089 294.978 647.036 296.147C651.397 297.95 656.001 294.88 657.901 293.565C663.894 289.521 666.378 283.382 667.621 279.777C672.639 265.233 669.862 256.464 670.642 248.084C670.032 243.406 669.716 236.707 671.08 229.034C671.908 224.259 673.248 220.191 674.661 216.902C677 217.073 679.411 217.243 681.726 217.34C680.02 220.873 673.662 234.612 678.729 250.544C681.117 258.144 685.282 263.504 688.181 266.671L758.583 262.359C758.705 263.236 759.338 269.594 764.6 273.029C770.837 277.121 779.826 274.807 783.26 269.643C787.67 263.211 782.505 253.467 778.559 249.058C769.302 238.753 749.521 238.437 728.4 247.255C730.569 244.965 734.369 240.264 735.221 233.492C736.147 226.232 733.321 220.654 731.129 216.244C728.498 211.055 725.307 207.328 723.09 205.063C724.162 204.356 725.234 203.65 726.33 202.943C728.181 204.624 730.569 207.158 732.712 210.666C735.075 214.539 736.245 218.144 736.854 220.702C742.578 220.264 751.299 218.948 760.678 214.295C766.038 211.64 770.252 208.668 773.443 206.013C771.129 204.868 767.061 202.407 763.431 197.828C760.142 193.711 758.778 189.643 758.145 187.109C759.485 186.719 760.8 186.232 762.14 185.745C763.553 189.423 766.379 194.929 771.908 198.9C771.908 198.9 777.17 202.651 787.865 205.111C788.035 205.185 788.108 205.185 788.181 205.258H788.254C792.128 205.818 796.245 206.354 800.654 206.573C813.711 207.206 824.966 205.477 833.784 203.358C834.15 209.253 834.588 215.051 834.929 220.946C835.806 220.897 846.354 220.946 850.934 213.492C855.075 206.695 851.226 197.316 847.475 192.127C836.488 177.121 814.345 186.159 800.167 170.325C796.05 165.769 794.077 160.873 793.078 157.657C794.15 156.878 795.222 156.171 796.293 155.465C796.829 157.828 798.705 163.382 803.918 167.621C808.279 171.104 812.907 171.957 815.148 172.298C829.521 174.783 842.725 164.527 846.159 161.774C841.994 165.623 841.263 172.054 844.503 176.658C847.743 181.336 854.077 182.943 859.192 180.239C859.68 179.167 860.459 177.292 861.117 174.929V174.856C862.14 170.787 862.7 165.331 860.508 159.874C860.41 159.557 860.24 159.241 860.045 158.948C860.045 158.948 860.118 158.875 860.045 158.875C854.856 147.353 839.071 140.239 821.58 144.113C820.63 144.259 810.13 145.209 802.993 137.097C797.658 130.958 796.415 122.139 799.679 114.441C797.974 112.712 795.392 109.837 794.15 106.378C774.661 128.765 755.563 143.187 740.629 152.663C727.012 161.262 713.808 167.572 702.359 173.784C690.91 179.923 681.19 185.94 674.344 193.954L674.271 194.027C672.712 196.122 671.251 198.12 669.935 200.118V200.191C658.948 216.683 656.415 230.105 656.293 239.728C656.147 251.884 659.874 261.823 653.126 271.738C648.449 278.729 641.116 281.896 641.677 288.425V288.4Z" fill="#004535"/>
<path d="M923.066 89.2992C921.409 89.1287 919.801 88.9338 918.145 88.7633C914.077 87.326 909.789 86.7413 906.598 86.6926C904.211 86.6926 901.385 86.9362 898.462 87.6427C891.836 87.4722 885.283 87.326 878.656 87.2286C876.976 87.1311 875.295 87.1068 873.638 87.0824C873.736 87.9594 874.466 92.9777 878.096 96.5587C878.924 97.5574 879.899 98.337 881.068 98.9704C881.604 99.2383 882.067 99.5063 882.53 99.7012C881.214 104.33 882.627 108.666 883.602 111.029C880.898 119.969 883.066 128.739 888.839 132.685C891.982 134.878 898.023 136.924 902.603 133.928C904.527 132.612 906.33 130.322 906.817 127.789C906.89 130.347 908.181 132.978 910.155 134.634C914.199 137.923 920.289 136.145 923.382 134.171C928.888 130.59 931.129 122.332 928.62 113.855C929.546 112.003 931.3 107.862 930.861 103.209C930.861 103.039 930.812 102.892 930.812 102.795L931.032 103.136C932.152 103.039 933.37 102.795 934.686 102.235C941.239 99.5307 943.188 92.4417 943.504 91.3455C936.683 90.6147 929.911 89.9569 923.09 89.2992H923.066ZM892.932 106.084C889.57 104.841 888.133 102.186 887.767 101.528C888.425 101.09 890.983 99.7255 894.393 100.335C898.656 101.163 900.752 104.719 901.044 105.207C900.557 105.499 896.976 107.521 892.907 106.059L892.932 106.084ZM907.012 125.645C907.012 125.645 907.012 125.889 906.915 125.962C906.428 121.065 900.362 119.238 901.044 117.363C901.823 114.927 912.42 115.511 913.078 118.02C913.516 119.896 908.181 120.992 907.012 125.645ZM919.631 107.716C915.417 108.666 912.128 106.23 911.665 105.864C912.006 105.402 914.54 102.113 918.949 101.845C922.311 101.65 924.698 103.307 925.307 103.842C924.868 104.451 923.115 106.912 919.631 107.74V107.716Z" fill="#004535"/>
<path d="M906.813 127.813C906.935 127.252 906.959 126.668 906.911 126.107C906.813 126.668 906.765 127.252 906.813 127.813Z" fill="#004535"/>
<path d="M930.789 102.771C930.789 102.893 930.813 103.039 930.838 103.161C930.887 103.161 930.96 103.161 931.008 103.161L930.789 102.795V102.771Z" fill="#004535"/>
<path d="M811.372 89.2992C813.028 89.1287 814.636 88.9338 816.293 88.7633C820.361 87.326 824.648 86.7413 827.84 86.6926C830.227 86.6926 833.053 86.9362 835.976 87.6427C842.602 87.4722 849.155 87.326 855.781 87.2286C857.462 87.1311 859.143 87.1068 860.8 87.0824C860.702 87.9594 859.971 92.9777 856.342 96.5587C855.513 97.5574 854.539 98.337 853.37 98.9704C852.834 99.2383 852.371 99.5063 851.908 99.7012C853.223 104.33 851.811 108.666 850.836 111.029C853.54 119.969 851.372 128.739 845.599 132.685C842.456 134.878 836.415 136.924 831.835 133.928C829.91 132.612 828.108 130.322 827.62 127.789C827.547 130.347 826.256 132.978 824.283 134.634C820.239 137.923 814.149 136.145 811.055 134.171C805.55 130.59 803.309 122.332 805.818 113.855C804.892 112.003 803.138 107.862 803.577 103.209C803.577 103.039 803.625 102.892 803.625 102.795L803.406 103.136C802.285 103.039 801.067 102.795 799.752 102.235C793.199 99.5307 791.25 92.4417 790.933 91.3455C797.754 90.6147 804.527 89.9569 811.348 89.2992H811.372ZM841.506 106.084C844.868 104.841 846.305 102.186 846.67 101.528C846.013 101.09 843.455 99.7255 840.044 100.335C835.781 101.163 833.686 104.719 833.394 105.207C833.881 105.499 837.462 107.521 841.53 106.059L841.506 106.084ZM827.426 125.645C827.426 125.645 827.426 125.889 827.523 125.962C828.01 121.065 834.076 119.238 833.394 117.363C832.614 114.927 822.018 115.511 821.36 118.02C820.921 119.896 826.256 120.992 827.426 125.645ZM814.807 107.716C819.021 108.666 822.31 106.23 822.773 105.864C822.432 105.402 819.898 102.113 815.489 101.845C812.127 101.65 809.74 103.307 809.131 103.842C809.569 104.451 811.323 106.912 814.807 107.74V107.716Z" fill="#004535"/>
<path d="M827.624 127.813C827.503 127.252 827.478 126.668 827.527 126.107C827.624 126.668 827.673 127.252 827.624 127.813Z" fill="#004535"/>
<path d="M803.649 102.771C803.649 102.893 803.625 103.039 803.6 103.161C803.551 103.161 803.478 103.161 803.43 103.161L803.649 102.795V102.771Z" fill="#004535"/>
</mask>
<g mask="url(#mask0_846_54618)">
<rect y="-196" width="1720" height="952" fill="#004535"/>
</g>
</g>
<defs>
<clipPath id="clip0_846_54618">
<rect width="1720" height="756" fill="white"/>
</clipPath>
</defs>
</svg>
