<svg width="87" height="62" viewBox="0 0 87 62" fill="none" xmlns="http://www.w3.org/2000/svg">
<g clip-path="url(#clip0_646_45789)">
<path d="M15.436 49.1097V8.99108C15.436 5.13496 12.294 2.01044 8.42069 2.01044C4.54741 2.01044 1.40345 5.13692 1.40345 8.99108V49.1097H0V8.37716C0 3.75217 3.76881 0 8.41872 0C13.0686 0 16.8374 3.75217 16.8374 8.37716V49.1097H15.434H15.436Z" fill="#E0E1D1"/>
<path d="M9.19544 9.42482V29.7822H7.79199V9.42482C7.79199 9.03843 8.1054 8.72656 8.49372 8.72656C8.88203 8.72656 9.19544 9.03843 9.19544 9.42482Z" fill="#E0E1D1"/>
<path d="M61.0402 9.42482V29.7822H59.6367V9.42482C59.6367 9.03843 59.9501 8.72656 60.3384 8.72656C60.7268 8.72656 61.0402 9.03843 61.0402 9.42482Z" fill="#E0E1D1"/>
<path d="M33.6772 49.1097V8.99108C33.6772 5.13496 30.5352 2.01044 26.6619 2.01044C22.7886 2.01044 19.6447 5.13692 19.6447 8.99108V49.1097H18.2412V8.37716C18.2432 3.75217 22.012 0 26.6619 0C31.3118 0 35.0806 3.75217 35.0806 8.37716V49.1097H33.6772Z" fill="#E0E1D1"/>
<path d="M49.1127 49.1097V8.99108C49.1127 5.13496 45.9707 2.01044 42.0974 2.01044C38.2242 2.01044 35.0802 5.13692 35.0802 8.99108V49.1097H33.6768V8.37716C33.6768 3.75021 37.4456 0 42.0955 0C46.7454 0 50.5142 3.75217 50.5142 8.37716V49.1097H49.1107H49.1127Z" fill="#E0E1D1"/>
<path d="M67.3559 49.1097V8.99108C67.3559 5.13496 64.2139 2.01044 60.3406 2.01044C56.4673 2.01044 53.3234 5.13692 53.3234 8.99108V49.1097H51.9199V8.37716C51.9199 3.75021 55.6887 0 60.3386 0C64.9885 0 68.7574 3.75217 68.7574 8.37716V49.1097H67.3539H67.3559Z" fill="#E0E1D1"/>
<path d="M85.5961 49.1097V8.99108C85.5961 5.13496 82.4541 2.01044 78.5808 2.01044C74.7076 2.01044 71.5636 5.13692 71.5636 8.99108V49.1097H70.1602V8.37716C70.1602 3.75021 73.929 0 78.5789 0C83.2288 0 86.9976 3.75217 86.9976 8.37716V49.1097H85.5941H85.5961Z" fill="#E0E1D1"/>
<path d="M18.2097 58.8775C18.3693 58.7873 18.5566 58.7441 18.7754 58.7441V59.4189H18.6079C18.3516 59.4189 18.1565 59.4836 18.0244 59.613C17.8923 59.7425 17.8253 59.9681 17.8253 60.2878V61.9471H17.1709V58.7951H17.8253V59.2521C17.9219 59.0913 18.0481 58.9677 18.2077 58.8775" fill="#E0E1D1"/>
<path d="M24.4463 60.6153H22.0257C22.0454 60.8664 22.1381 61.0704 22.3076 61.2214C22.4771 61.3744 22.6841 61.4509 22.9285 61.4509C23.2813 61.4509 23.5297 61.3038 23.6756 61.0096H24.3832C24.2866 61.2998 24.1132 61.5372 23.8628 61.7216C23.6125 61.9059 23.3011 61.9981 22.9285 61.9981C22.625 61.9981 22.3549 61.9314 22.1144 61.7961C21.8739 61.6607 21.6867 61.4705 21.5507 61.2234C21.4147 60.9762 21.3477 60.6918 21.3477 60.3682C21.3477 60.0446 21.4127 59.7582 21.5467 59.513C21.6788 59.2659 21.8641 59.0776 22.1046 58.9442C22.3431 58.8108 22.619 58.7441 22.9305 58.7441C23.2419 58.7441 23.4962 58.8089 23.7288 58.9383C23.9634 59.0678 24.1447 59.2502 24.2748 59.4836C24.4049 59.719 24.4699 59.9877 24.4699 60.2936C24.4699 60.4113 24.462 60.5192 24.4463 60.6134M23.7859 60.0877C23.782 59.8484 23.6953 59.6542 23.5277 59.5091C23.3582 59.3639 23.1493 59.2914 22.9009 59.2914C22.6742 59.2914 22.4811 59.362 22.3194 59.5052C22.1598 59.6483 22.0632 59.8425 22.0316 60.0857H23.7859V60.0877Z" fill="#E0E1D1"/>
<path d="M27.7794 61.8647C27.5823 61.7745 27.4266 61.6529 27.3103 61.498C27.194 61.343 27.1329 61.1704 27.127 60.9801H27.805C27.8169 61.1135 27.8799 61.2253 27.9982 61.3155C28.1145 61.4058 28.2623 61.4509 28.4378 61.4509C28.6132 61.4509 28.765 61.4156 28.8655 61.345C28.968 61.2744 29.0173 61.1841 29.0173 61.0723C29.0173 60.9546 28.9601 60.8664 28.8478 60.8095C28.7354 60.7526 28.556 60.6899 28.3096 60.6212C28.0711 60.5565 27.878 60.4937 27.7282 60.4329C27.5783 60.3721 27.4502 60.278 27.3398 60.1524C27.2295 60.0269 27.1762 59.8602 27.1762 59.6542C27.1762 59.4856 27.2255 59.3326 27.326 59.1933C27.4266 59.054 27.5685 58.9442 27.7538 58.8638C27.9391 58.7834 28.1539 58.7441 28.3944 58.7441C28.7551 58.7441 29.0449 58.8344 29.2656 59.0168C29.4864 59.1972 29.6047 59.4444 29.6204 59.7582H28.9641C28.9522 59.617 28.8951 59.5052 28.7906 59.4208C28.6881 59.3365 28.5462 59.2953 28.3707 59.2953C28.1953 59.2953 28.0652 59.3286 27.9745 59.3934C27.8819 59.4581 27.8366 59.5444 27.8366 59.6503C27.8366 59.7346 27.8681 59.8053 27.9292 59.8621C27.9903 59.919 28.0652 59.9641 28.1539 59.9975C28.2426 60.0308 28.3727 60.07 28.5462 60.121C28.7748 60.1818 28.9641 60.2446 29.1119 60.3074C29.2597 60.3701 29.3859 60.4623 29.4943 60.5859C29.6007 60.7075 29.6579 60.8703 29.6618 61.0723C29.6618 61.2508 29.6126 61.4117 29.512 61.5529C29.4115 61.6941 29.2716 61.8039 29.0882 61.8844C28.9069 61.9648 28.692 62.004 28.4476 62.004C28.2032 62.004 27.9745 61.9589 27.7774 61.8706" fill="#E0E1D1"/>
<path d="M33.32 59.3268V61.0725C33.32 61.1902 33.3476 61.2765 33.4028 61.3275C33.458 61.3785 33.5526 61.404 33.6867 61.404H34.0888V61.9473H33.5723C33.2767 61.9473 33.05 61.8786 32.8943 61.7413C32.7366 61.604 32.6577 61.3804 32.6577 61.0725V59.3268H32.2832V58.7953H32.6577V58.0107H33.32V58.7953H34.0907V59.3268H33.32Z" fill="#E0E1D1"/>
<path d="M36.8602 59.5169C36.9923 59.2717 37.1717 59.0835 37.4003 58.9481C37.629 58.8128 37.8813 58.7461 38.1572 58.7461C38.4076 58.7461 38.6244 58.7951 38.8097 58.8912C38.995 58.9873 39.1448 59.109 39.2551 59.2541V58.7971H39.9174V61.951H39.2551V61.4822C39.1448 61.6313 38.993 61.7549 38.8018 61.8549C38.6106 61.9549 38.3918 62.004 38.1454 62.004C37.8734 62.004 37.623 61.9334 37.3983 61.7941C37.1717 61.6549 36.9923 61.4607 36.8602 61.2116C36.7282 60.9625 36.6611 60.6781 36.6611 60.3623C36.6611 60.0465 36.7262 59.766 36.8602 59.5208M39.1211 59.8072C39.0304 59.6464 38.9122 59.5248 38.7683 59.4404C38.6224 59.3561 38.4647 59.3149 38.2972 59.3149C38.1296 59.3149 37.9719 59.3561 37.8261 59.4385C37.6802 59.5208 37.5619 59.6405 37.4732 59.7994C37.3826 59.9582 37.3392 60.1446 37.3392 60.3623C37.3392 60.58 37.3845 60.7703 37.4732 60.935C37.5639 61.0998 37.6822 61.2233 37.83 61.3096C37.9778 61.394 38.1336 61.4391 38.2991 61.4391C38.4647 61.4391 38.6244 61.3979 38.7702 61.3136C38.9161 61.2292 39.0344 61.1076 39.1231 60.9448C39.2138 60.782 39.2571 60.5918 39.2571 60.376C39.2571 60.1603 39.2118 59.97 39.1231 59.8092" fill="#E0E1D1"/>
<path d="M45.8351 58.7949V61.9489H45.1787V61.5762C45.0742 61.7056 44.9402 61.8076 44.7726 61.8822C44.6071 61.9567 44.4277 61.994 44.2404 61.994C43.9901 61.994 43.7674 61.943 43.5702 61.839C43.3731 61.7351 43.2174 61.584 43.1051 61.3801C42.9927 61.178 42.9355 60.9328 42.9355 60.6484V58.7949H43.586V60.5523C43.586 60.8348 43.657 61.0505 43.7989 61.2016C43.9408 61.3526 44.134 61.4271 44.3804 61.4271C44.6268 61.4271 44.82 61.3526 44.9638 61.2016C45.1077 61.0505 45.1787 60.8348 45.1787 60.5523V58.7949H45.8351Z" fill="#E0E1D1"/>
<path d="M49.9206 58.8775C50.0803 58.7873 50.2675 58.7441 50.4883 58.7441V59.4189H50.3207C50.0645 59.4189 49.8694 59.4836 49.7373 59.613C49.6052 59.7425 49.5382 59.9681 49.5382 60.2878V61.9471H48.8838V58.7951H49.5382V59.2521C49.6328 59.0913 49.7609 58.9677 49.9206 58.8775Z" fill="#E0E1D1"/>
<path d="M53.2557 59.5169C53.3878 59.2717 53.5691 59.0835 53.7958 58.9481C54.0245 58.8128 54.2768 58.7461 54.5527 58.7461C54.8031 58.7461 55.0199 58.7951 55.2052 58.8912C55.3904 58.9873 55.5403 59.109 55.6506 59.2541V58.7971H56.3129V61.951H55.6506V61.4822C55.5403 61.6313 55.3885 61.7549 55.1973 61.8549C55.0061 61.9549 54.7873 62.004 54.5409 62.004C54.2689 62.004 54.0185 61.9334 53.7938 61.7941C53.5671 61.6549 53.3878 61.4607 53.2557 61.2116C53.1236 60.9625 53.0586 60.6781 53.0586 60.3623C53.0586 60.0465 53.1236 59.766 53.2557 59.5208M55.5166 59.8072C55.4259 59.6464 55.3077 59.5248 55.1618 59.4404C55.0159 59.3561 54.8582 59.3149 54.6907 59.3149C54.5231 59.3149 54.3655 59.3561 54.2196 59.4385C54.0737 59.5208 53.9555 59.6405 53.8668 59.7994C53.7761 59.9582 53.7308 60.1446 53.7308 60.3623C53.7308 60.58 53.7761 60.7703 53.8668 60.935C53.9574 61.0998 54.0757 61.2233 54.2235 61.3096C54.3714 61.394 54.5271 61.4391 54.6927 61.4391C54.8582 61.4391 55.0179 61.3979 55.1638 61.3136C55.3096 61.2292 55.4279 61.1076 55.5186 60.9448C55.6092 60.782 55.6526 60.5918 55.6526 60.376C55.6526 60.1603 55.6073 59.97 55.5186 59.8092" fill="#E0E1D1"/>
<path d="M61.6291 58.8991C61.8262 59.003 61.98 59.1541 62.0923 59.3561C62.2027 59.5581 62.2599 59.8033 62.2599 60.0897V61.9491H61.6094V60.1858C61.6094 59.9033 61.5385 59.6876 61.3965 59.5365C61.2546 59.3855 61.0614 59.311 60.8151 59.311C60.5687 59.311 60.3755 59.3855 60.2316 59.5365C60.0877 59.6876 60.0167 59.9033 60.0167 60.1858V61.9491H59.3604V58.7971H60.0167V59.158C60.1232 59.0285 60.2612 58.9265 60.4287 58.854C60.5943 58.7814 60.7737 58.7461 60.9609 58.7461C61.2093 58.7461 61.434 58.7971 61.6311 58.8991" fill="#E0E1D1"/>
<path d="M66.0427 59.3268V61.0725C66.0427 61.1902 66.0703 61.2765 66.1255 61.3275C66.1807 61.3785 66.2753 61.404 66.4113 61.404H66.8134V61.9473H66.295C65.9993 61.9473 65.7726 61.8786 65.6169 61.7413C65.4592 61.604 65.3804 61.3804 65.3804 61.0725V59.3268H65.0059V58.7953H65.3804V58.0107H66.0407V58.7953H66.8114V59.3268H66.0407H66.0427Z" fill="#E0E1D1"/>
<path d="M9.68229 60.2208C9.68229 59.701 9.2585 59.2812 8.73812 59.2812C8.21774 59.2812 7.79395 59.703 7.79395 60.2208C7.79395 60.7386 8.21577 61.1603 8.73812 61.1603C9.26047 61.1603 9.68229 60.7386 9.68229 60.2208Z" fill="#E0E1D1"/>
<path d="M75.9342 60.2208C75.9342 59.701 75.5105 59.2812 74.9901 59.2812C74.4697 59.2812 74.0459 59.703 74.0459 60.2208C74.0459 60.7386 74.4677 61.1603 74.9901 61.1603C75.5124 61.1603 75.9342 60.7386 75.9342 60.2208Z" fill="#E0E1D1"/>
</g>
<defs>
<clipPath id="clip0_646_45789">
<rect width="87" height="62" fill="white"/>
</clipPath>
</defs>
</svg>
