<svg width="61" height="60" viewBox="0 0 61 60" fill="none" xmlns="http://www.w3.org/2000/svg">
<g clip-path="url(#clip0_1273_20447)">
<path d="M50.8617 25.5692C50.8435 25.8723 50.6374 26.1814 50.3647 26.2905C49.9585 26.4603 49.5281 26.1693 49.3463 26.0481C48.7886 25.6722 48.5521 25.0963 48.437 24.7629C47.9702 23.4051 48.2248 22.5867 48.1581 21.8047C48.2127 21.3683 48.243 20.7439 48.1157 20.0286C48.0369 19.5861 47.9096 19.2042 47.7823 18.895C47.564 18.9132 47.3397 18.9253 47.1215 18.9374C47.2791 19.2708 47.8732 20.5499 47.4004 22.0351C47.1761 22.7443 46.7881 23.2414 46.5153 23.5384L39.9442 23.1383C39.9321 23.2172 39.8715 23.8112 39.3805 24.1325C38.7985 24.5144 37.962 24.3022 37.6407 23.8173C37.2285 23.2171 37.7134 22.3079 38.0771 21.8956C38.944 20.9318 40.7868 20.9076 42.757 21.7259C42.5508 21.5137 42.1992 21.0712 42.1204 20.4408C42.0356 19.7618 42.2962 19.2405 42.5023 18.8283C42.7509 18.3434 43.0479 17.9978 43.254 17.7857C43.151 17.719 43.054 17.6523 42.9509 17.5856C42.7812 17.7432 42.5569 17.9797 42.3569 18.307C42.1386 18.6646 42.0295 19.0041 41.9689 19.2405C41.4354 19.1981 40.6232 19.0769 39.7442 18.6404C39.2471 18.3919 38.8531 18.113 38.55 17.8645C38.7682 17.7554 39.144 17.525 39.4835 17.1007C39.7927 16.7188 39.92 16.3369 39.9745 16.1004C39.8472 16.0641 39.726 16.0156 39.5987 15.9732C39.4653 16.3187 39.2047 16.8279 38.6894 17.2037C38.6894 17.2037 38.1984 17.5553 37.1982 17.7857C37.18 17.7917 37.1739 17.7857 37.1679 17.7978H37.1618C36.7981 17.8523 36.4162 17.9008 36.004 17.919C34.7855 17.9796 33.7368 17.816 32.9124 17.6159C32.876 18.1676 32.8396 18.7071 32.8033 19.2587C32.7245 19.2587 31.7364 19.2587 31.306 18.5616C30.918 17.9251 31.2817 17.0522 31.6273 16.5672C32.6517 15.1669 34.7188 16.0095 36.0403 14.5304C36.4222 14.1061 36.6101 13.6454 36.7011 13.3483C36.6041 13.2756 36.501 13.2089 36.398 13.1422C36.3495 13.3605 36.1737 13.8818 35.6887 14.2758C35.2826 14.6031 34.8522 14.682 34.64 14.7123C33.3003 14.9426 32.0637 13.9848 31.7424 13.7302C32.1304 14.0879 32.1971 14.688 31.894 15.1184C31.5909 15.5549 31.0029 15.7064 30.524 15.4518C30.4755 15.3548 30.4088 15.173 30.3482 14.9548C30.2512 14.5668 30.2027 14.0576 30.4028 13.5484C30.4149 13.5181 30.427 13.4878 30.4452 13.4635C30.4452 13.4635 30.4391 13.4575 30.4452 13.4575C30.9301 12.3845 32.4032 11.7177 34.0399 12.0814C34.1308 12.0935 35.1068 12.1845 35.7736 11.4267C36.2707 10.8508 36.3859 10.0325 36.0828 9.31109C36.2404 9.14742 36.4829 8.8807 36.598 8.55942C38.4166 10.6508 40.1988 11.9965 41.5931 12.8816C42.8661 13.6817 44.0966 14.2758 45.1696 14.8517C46.2365 15.4276 47.1458 15.9853 47.7883 16.7369H47.7944C47.9399 16.943 48.0793 17.1249 48.2005 17.3128C49.225 18.8586 49.4614 20.1134 49.4735 21.0106C49.4857 22.1442 49.1401 23.0717 49.7706 23.9991C50.207 24.6538 50.892 24.9509 50.8375 25.557L50.8617 25.5692Z" fill="#E0E1D1"/>
<path d="M35.0144 6.98333C34.8568 6.96514 34.7113 6.94697 34.5537 6.93484C34.1718 6.80148 33.7717 6.74692 33.4747 6.74086C33.2504 6.74086 32.9897 6.7651 32.7169 6.83178C32.0986 6.8136 31.4863 6.80147 30.868 6.79541C30.7104 6.78329 30.5528 6.7833 30.4013 6.7833C30.4134 6.86816 30.4801 7.33492 30.8195 7.66833C30.8983 7.76532 30.9893 7.83806 31.0984 7.89262C31.1469 7.91687 31.1893 7.94112 31.2378 7.95931C31.1166 8.38971 31.2439 8.79585 31.3348 9.02015C31.0802 9.85669 31.2863 10.675 31.8258 11.0448C32.1168 11.2509 32.6805 11.4389 33.1109 11.16C33.2928 11.0388 33.4625 10.8205 33.505 10.5841C33.511 10.8205 33.6323 11.0691 33.8141 11.2206C34.19 11.5298 34.7598 11.36 35.0507 11.1782C35.566 10.8448 35.7721 10.0749 35.5418 9.2808C35.6266 9.10501 35.7903 8.72312 35.7539 8.28666C35.7539 8.27453 35.7539 8.25633 35.7539 8.25027L35.7721 8.28059C35.8752 8.27453 35.9903 8.25027 36.1116 8.19571C36.7238 7.94111 36.9057 7.28037 36.936 7.17732C36.2995 7.11064 35.6691 7.05001 35.0326 6.98333H35.0144ZM32.2017 8.54732C31.8864 8.43214 31.7531 8.18359 31.7228 8.12297C31.7834 8.08054 32.0259 7.95325 32.3411 8.01386C32.7412 8.09267 32.9351 8.42607 32.9654 8.46851C32.917 8.49276 32.5835 8.68674 32.2077 8.54732H32.2017ZM33.5171 10.3719C33.5171 10.3719 33.5171 10.3962 33.505 10.4023C33.4565 9.94156 32.8927 9.77788 32.9594 9.60209C33.0321 9.37779 34.0202 9.42629 34.0809 9.66271C34.1233 9.8385 33.6262 9.94155 33.5171 10.3719ZM34.6931 8.69886C34.2991 8.78979 33.9899 8.55944 33.9475 8.52913C33.9778 8.4867 34.2142 8.17754 34.6264 8.1533C34.9416 8.13511 35.1599 8.29272 35.2205 8.34121C35.178 8.39577 35.0144 8.62611 34.6931 8.70491V8.69886Z" fill="#E0E1D1"/>
<path d="M9.65811 25.5693C9.6763 25.8724 9.88241 26.1815 10.1552 26.2906C10.5613 26.4604 10.9917 26.1694 11.1736 26.0482C11.7313 25.6723 11.9677 25.0965 12.0829 24.7631C12.5496 23.4052 12.295 22.5868 12.3617 21.8048C12.3072 21.3684 12.2769 20.744 12.4042 20.0287C12.483 19.5862 12.6103 19.2043 12.7376 18.8951C12.9558 18.9133 13.1801 18.9254 13.3983 18.9375C13.2407 19.2709 12.6466 20.55 13.1195 22.0352C13.3438 22.7444 13.7317 23.2415 14.0045 23.5385L20.5756 23.1385C20.5877 23.2173 20.6484 23.8113 21.1394 24.1326C21.7213 24.5145 22.5579 24.3023 22.8792 23.8174C23.2914 23.2173 22.8064 22.308 22.4427 21.8958C21.5758 20.9319 19.733 20.9077 17.7629 21.726C17.969 21.5139 18.3206 21.0713 18.3994 20.4409C18.4843 19.762 18.2236 19.2406 18.0175 18.8284C17.769 18.3435 17.4719 17.9979 17.2658 17.7858C17.3689 17.7191 17.4659 17.6524 17.5689 17.5857C17.7386 17.7434 17.9629 17.9798 18.163 18.3071C18.3812 18.6648 18.4903 19.0042 18.5509 19.2406C19.0844 19.1982 19.8967 19.077 20.7757 18.6405C21.2728 18.392 21.6668 18.1131 21.9699 17.8646C21.7516 17.7555 21.3758 17.5251 21.0363 17.1008C20.7272 16.7189 20.5999 16.337 20.5453 16.1006C20.6726 16.0642 20.7939 16.0157 20.9212 15.9733C21.0545 16.3188 21.3152 16.828 21.8304 17.2038C21.8304 17.2038 22.3215 17.5554 23.3217 17.7858C23.3399 17.7918 23.3459 17.7858 23.352 17.7979H23.3581C23.7218 17.8525 24.1037 17.901 24.5159 17.9191C25.7343 17.9798 26.783 17.8161 27.6075 17.616C27.6438 18.1677 27.6802 18.7072 27.7166 19.2588C27.7954 19.2588 28.7835 19.2588 29.2139 18.5617C29.6018 17.9252 29.2381 17.0523 28.8926 16.5673C27.8681 15.167 25.801 16.0096 24.4795 14.5305C24.0976 14.1062 23.9097 13.6455 23.8188 13.3484C23.9157 13.2757 24.0188 13.209 24.1218 13.1423C24.1703 13.3606 24.3461 13.8819 24.8311 14.2759C25.2372 14.6033 25.6676 14.6821 25.8798 14.7124C27.2195 14.9427 28.4561 13.985 28.7774 13.7303C28.3895 14.088 28.3228 14.6881 28.6259 15.1185C28.929 15.555 29.517 15.7065 29.9958 15.4519C30.0443 15.3549 30.111 15.1731 30.1716 14.9549C30.2686 14.5669 30.3171 14.0577 30.1171 13.5485C30.105 13.5182 30.0928 13.4879 30.0747 13.4636C30.0747 13.4636 30.0807 13.4576 30.0747 13.4576C29.5897 12.3846 28.1167 11.7178 26.4799 12.0815C26.389 12.0936 25.413 12.1846 24.7462 11.4268C24.2491 10.8509 24.134 10.0326 24.4371 9.3112C24.2795 9.14753 24.037 8.88081 23.9218 8.55953C22.1032 10.6509 20.321 11.9966 18.9268 12.8817C17.6538 13.6819 16.4232 14.2759 15.3502 14.8518C14.2833 15.4277 13.3741 15.9854 12.7315 16.7371H12.7254C12.58 16.9432 12.4405 17.125 12.3193 17.3129C11.2948 18.8587 11.0584 20.1136 11.0463 21.0107C11.0342 22.1443 11.3797 23.0718 10.7492 23.9992C10.3128 24.6539 9.62781 24.951 9.68236 25.5572L9.65811 25.5693Z" fill="#E0E1D1"/>
<path d="M23.5943 7.17135C23.6246 7.2744 23.8064 7.93517 24.4187 8.18977C24.5399 8.24432 24.6551 8.2625 24.7582 8.27462L24.7763 8.24432C24.7763 8.24432 24.7703 8.26857 24.7763 8.28069C24.7339 8.71715 24.9037 9.09904 24.9885 9.27484C24.7521 10.0629 24.9643 10.8388 25.4795 11.1722C25.7644 11.3541 26.3343 11.5238 26.7162 11.2147C26.898 11.0631 27.0193 10.8146 27.0253 10.5782C27.0677 10.8146 27.2375 11.0267 27.4193 11.154C27.8497 11.4329 28.4074 11.245 28.7045 11.0389C29.244 10.6691 29.444 9.85072 29.1955 9.01418C29.2864 8.78989 29.4198 8.3898 29.2925 7.95334C29.3349 7.93516 29.3773 7.91092 29.4319 7.88667C29.541 7.82605 29.6319 7.75329 29.7107 7.66236C30.0502 7.32896 30.1169 6.8622 30.129 6.77733C29.9714 6.77733 29.8138 6.77734 29.6623 6.78946C29.0439 6.79553 28.4317 6.81371 27.8134 6.82583C27.5406 6.75915 27.2799 6.74095 27.0556 6.73489C26.7586 6.73489 26.3585 6.79551 25.9766 6.92888C25.819 6.94706 25.6735 6.96526 25.5159 6.97738C24.8794 7.038 24.249 7.09861 23.6125 7.17135H23.5943ZM27.5527 8.46861C27.5769 8.42011 27.777 8.08671 28.1771 8.01397C28.4923 7.95941 28.7348 8.08671 28.7954 8.12308C28.759 8.1837 28.6257 8.43224 28.3165 8.54742C27.9346 8.68078 27.6073 8.49286 27.5588 8.46861H27.5527ZM26.4312 9.66281C26.4919 9.42639 27.48 9.37183 27.5527 9.60219C27.6133 9.77798 27.0496 9.94772 27.0071 10.4024C27.0011 10.3963 27.0011 10.3781 26.995 10.372C26.8859 9.93559 26.3888 9.83254 26.4312 9.66281ZM25.2916 8.33525C25.3462 8.28675 25.5705 8.12914 25.8857 8.14733C26.2979 8.17158 26.5343 8.48073 26.5646 8.52316C26.5222 8.55347 26.213 8.78383 25.819 8.6929C25.4917 8.61409 25.328 8.3898 25.2916 8.32918V8.33525Z" fill="#E0E1D1"/>
<path d="M27.0194 10.5782C27.0073 10.5236 27.0073 10.4751 27.0073 10.4205C27.0194 10.4751 27.0194 10.5236 27.0194 10.5782Z" fill="#E0E1D1"/>
<path d="M24.7825 8.23823C24.7825 8.23823 24.7825 8.26247 24.7825 8.2746C24.7825 8.2746 24.7704 8.2746 24.7644 8.2746L24.7825 8.23823Z" fill="#E0E1D1"/>
<path d="M55.5487 27.1514V25.1267C55.5487 11.2691 44.2736 0 30.4221 0C16.5706 0 5.29541 11.2752 5.29541 25.1267V56H15.049V46.986H8.91438V42.4759H15.049V33.4618H8.91438V30.7824H51.9176V33.4618H45.7769V42.4759H51.9176V46.986H45.7769V56H55.5548V27.1514H55.5487ZM30.2584 18.4464C26.1848 18.4464 22.8689 21.7623 22.8689 25.8359V27.1514H8.93256V25.1267C8.93256 13.2756 18.5771 3.63715 30.4221 3.63715C42.2671 3.63715 51.9116 13.2817 51.9116 25.1267V27.1514H37.6418V25.8359C37.6418 21.7623 34.326 18.4464 30.2523 18.4464" fill="#E0E1D1"/>
</g>
<defs>
<clipPath id="clip0_1273_20447">
<rect width="60" height="60" fill="white" transform="translate(0.5)"/>
</clipPath>
</defs>
</svg>
