<svg width="24" height="24" viewBox="0 0 24 24" fill="none" xmlns="http://www.w3.org/2000/svg">
<path d="M21.8166 9.30659C21.7003 9.42281 21.5425 9.48809 21.3781 9.48809C21.2136 9.48809 21.0559 9.42281 20.9395 9.30659C18.5684 6.93645 15.3531 5.60499 12.0006 5.60499C8.64806 5.60499 5.43276 6.93645 3.0617 9.30659C2.94406 9.41622 2.78845 9.4759 2.62767 9.47306C2.46689 9.47022 2.31349 9.40509 2.19978 9.29139C2.08607 9.17768 2.02094 9.02427 2.0181 8.86349C2.01527 8.70271 2.07495 8.54711 2.18457 8.42946C4.78853 5.82561 8.32019 4.36279 12.0027 4.36279C15.6851 4.36279 19.2168 5.82561 21.8208 8.42946C21.9364 8.54637 22.001 8.70442 22.0002 8.86888C21.9994 9.03335 21.9334 9.19078 21.8166 9.30659Z" fill="#E0E1D1"/>
<path d="M19.2396 11.0029C19.3492 11.1206 19.4089 11.2762 19.4061 11.437C19.4032 11.5978 19.3381 11.7512 19.2244 11.8649C19.1107 11.9786 18.9573 12.0437 18.7965 12.0466C18.6357 12.0494 18.4801 11.9897 18.3625 11.8801C17.5274 11.0434 16.5355 10.3796 15.4436 9.92676C14.3517 9.47387 13.1812 9.24076 11.9991 9.24076C10.817 9.24076 9.64653 9.47387 8.55462 9.92676C7.46272 10.3796 6.47085 11.0434 5.63577 11.8801C5.51729 11.982 5.36469 12.0355 5.20848 12.0299C5.05227 12.0242 4.90395 11.9598 4.79316 11.8495C4.68237 11.7393 4.61727 11.5913 4.61087 11.4351C4.60447 11.2789 4.65724 11.126 4.75864 11.0071C5.70895 10.0553 6.83759 9.30027 8.07999 8.7851C9.32238 8.26993 10.6542 8.00476 11.9991 8.00476C13.3441 8.00476 14.6759 8.26993 15.9183 8.7851C17.1607 9.30027 18.2893 10.0553 19.2396 11.0071V11.0029Z" fill="#E0E1D1"/>
<path d="M16.6684 13.5767C16.778 13.6943 16.8377 13.8499 16.8348 14.0107C16.832 14.1715 16.7669 14.3249 16.6531 14.4386C16.5394 14.5523 16.386 14.6174 16.2253 14.6203C16.0645 14.6231 15.9089 14.5634 15.7912 14.4538C14.7835 13.452 13.4202 12.8897 11.9993 12.8897C10.5783 12.8897 9.21509 13.452 8.20733 14.4538C8.08968 14.5634 7.93408 14.6231 7.7733 14.6203C7.61251 14.6174 7.45911 14.5523 7.3454 14.4386C7.2317 14.3249 7.16656 14.1715 7.16373 14.0107C7.16089 13.8499 7.22057 13.6943 7.3302 13.5767C7.94316 12.9624 8.67126 12.4751 9.4728 12.1426C10.2743 11.8101 11.1336 11.639 12.0013 11.639C12.8691 11.639 13.7284 11.8101 14.5299 12.1426C15.3314 12.4751 16.0595 12.9624 16.6725 13.5767H16.6684Z" fill="#E0E1D1"/>
<path d="M11.9999 15.2769C11.5686 15.2769 11.1471 15.4048 10.7885 15.6444C10.4299 15.884 10.1504 16.2245 9.98541 16.6229C9.82038 17.0213 9.7772 17.4597 9.86133 17.8827C9.94547 18.3057 10.1531 18.6942 10.4581 18.9991C10.763 19.3041 11.1515 19.5117 11.5745 19.5958C11.9974 19.68 12.4359 19.6368 12.8343 19.4718C13.2327 19.3067 13.5732 19.0273 13.8128 18.6687C14.0524 18.3101 14.1803 17.8886 14.1803 17.4573C14.1803 16.879 13.9506 16.3244 13.5416 15.9155C13.1327 15.5066 12.5781 15.2769 11.9999 15.2769ZM11.9999 18.3965C11.8141 18.3965 11.6325 18.3414 11.4781 18.2382C11.3236 18.135 11.2032 17.9884 11.1322 17.8167C11.0611 17.6451 11.0425 17.4563 11.0787 17.2741C11.1149 17.0919 11.2044 16.9246 11.3357 16.7932C11.4671 16.6619 11.6344 16.5724 11.8166 16.5362C11.9988 16.4999 12.1877 16.5185 12.3593 16.5896C12.5309 16.6607 12.6776 16.7811 12.7808 16.9355C12.884 17.09 12.9391 17.2716 12.9391 17.4573C12.9391 17.7064 12.8401 17.9453 12.664 18.1214C12.4878 18.2976 12.2489 18.3965 11.9999 18.3965Z" fill="#E0E1D1"/>
</svg>
