<svg width="110" height="87" viewBox="0 0 110 87" fill="none" xmlns="http://www.w3.org/2000/svg">
<g clip-path="url(#clip0_646_45809)">
<path d="M27.073 65.0156H28.0393L29.2214 67.8101L29.4945 68.4865L29.7103 67.8101L30.1464 66.7898L29.3614 65.0156H30.2704L30.5917 65.8606L30.8901 65.0156H31.8013L31.0163 66.7898L31.4593 67.8329L31.7279 68.4865L31.9344 67.8215L33.1234 65.0156H34.0874L32.164 69.3429H31.2872L30.8993 68.4865L30.5848 67.6507L30.2681 68.4865L29.8756 69.3429H28.9988L27.073 65.0156Z" fill="#E0E1D1"/>
<path d="M36.1142 65.0156H35.2236V69.3429H36.1142V65.0156Z" fill="#E0E1D1"/>
<path d="M37.8086 65.0156H38.6923L41.4099 66.4277V65.0156H42.2959V69.3429H41.4099V67.3592L38.6923 65.9539V69.3429H37.8086V65.0156Z" fill="#E0E1D1"/>
<path d="M44.0996 65.0156H47.8134V65.7854H44.9856V66.6486H47.4898V67.3728H44.9856V68.5776H47.8731V69.3429H44.0996V65.0156Z" fill="#E0E1D1"/>
<path d="M51.6309 67.1538C51.6309 66.8464 51.6905 66.5571 51.8076 66.2907C51.9247 66.0242 52.0945 65.7919 52.3172 65.596C52.5398 65.4002 52.8106 65.2453 53.132 65.1314C53.4533 65.0198 53.816 64.9629 54.2223 64.9629C54.578 64.9629 54.904 64.9993 55.2001 65.0699C55.4961 65.1405 55.7716 65.2499 56.0264 65.3956L55.6201 66.0606C55.5443 66.0128 55.4571 65.9673 55.3561 65.9285C55.2574 65.8898 55.1496 65.8579 55.0371 65.8306C54.9246 65.8033 54.8076 65.7828 54.6882 65.7691C54.5688 65.7532 54.4495 65.7463 54.3324 65.7463C54.0501 65.7463 53.7976 65.7828 53.5773 65.8511C53.3546 65.9194 53.1687 66.0174 53.0172 66.1426C52.8657 66.2656 52.751 66.4159 52.6729 66.589C52.5926 66.7621 52.5536 66.9511 52.5536 67.1584C52.5536 67.3656 52.5949 67.5683 52.6775 67.7483C52.7579 67.9259 52.8772 68.0808 53.0333 68.2129C53.1871 68.3427 53.3776 68.4452 53.6025 68.5181C53.8275 68.5909 54.0799 68.6274 54.3646 68.6274C54.4931 68.6274 54.6193 68.6183 54.7456 68.6C54.8718 68.5818 54.9935 68.5568 55.1128 68.5249C55.2299 68.493 55.3447 68.4543 55.4548 68.4087C55.565 68.3632 55.6683 68.3131 55.7624 68.2607L56.171 68.9257C55.9323 69.0783 55.6568 69.1967 55.3447 69.281C55.0325 69.3676 54.6997 69.4085 54.3485 69.4085C53.9009 69.4085 53.5061 69.3516 53.1687 69.2355C52.829 69.1193 52.5467 68.9622 52.3194 68.7595C52.0922 68.5568 51.9224 68.3199 51.8076 68.0443C51.6928 67.7688 51.6355 67.475 51.6355 67.1584" fill="#E0E1D1"/>
<path d="M57.7107 65.0156H61.4245V65.7854H58.5967V66.6486H61.1009V67.3728H58.5967V68.5776H61.4842V69.3429H57.7107V65.0156Z" fill="#E0E1D1"/>
<path d="M63.0381 65.0156H63.9218V68.5731H66.4581V69.3429H63.0381V65.0156Z" fill="#E0E1D1"/>
<path d="M67.8857 65.0156H68.7717V68.5731H71.308V69.3429H67.8857V65.0156Z" fill="#E0E1D1"/>
<path d="M74.2232 65.0156H75.162L77.2713 69.3429H76.3418L75.9929 68.6141H73.4451L73.1077 69.3429H72.1758L74.2232 65.0156ZM75.644 67.8921L74.7006 65.9266L73.7825 67.8921H75.644Z" fill="#E0E1D1"/>
<path d="M78.5202 65.0156H80.7375C81.0726 65.0156 81.3618 65.0521 81.6074 65.1204C81.853 65.1887 82.0573 65.2889 82.2179 65.421C82.3786 65.5508 82.5003 65.7125 82.5783 65.8993C82.6586 66.0883 82.6977 66.3024 82.6977 66.5393C82.6977 66.6987 82.6793 66.8513 82.638 66.997C82.599 67.1428 82.5393 67.2749 82.459 67.3979C82.3786 67.5209 82.2753 67.6279 82.1537 67.7236C82.0297 67.8192 81.8851 67.8966 81.7199 67.9604L82.6678 69.3451H81.5844L80.765 68.1153H79.3993V69.3451H78.5156V65.0179L78.5202 65.0156ZM80.7604 67.3523C80.928 67.3523 81.0749 67.3341 81.1988 67.2954C81.3251 67.2567 81.4307 67.202 81.5133 67.1314C81.5982 67.0608 81.6602 66.9765 81.7038 66.8741C81.7451 66.7738 81.7658 66.6622 81.7658 66.537C81.7658 66.2956 81.6831 66.1088 81.5156 65.9767C81.348 65.8446 81.0955 65.7786 80.7581 65.7786H79.4016V67.35H80.7581L80.7604 67.3523Z" fill="#E0E1D1"/>
<path d="M69.5173 56.0713H41.2002V56.586H69.5173V56.0713Z" fill="#E0E1D1"/>
<path d="M5.89892 87.0003C2.57303 87.0003 0 84.4177 0 81.1313C0 77.8449 2.76584 75.5264 5.91499 75.5264C9.06414 75.5264 11.8139 78.0521 11.8139 81.3066C11.8139 84.5612 9.07792 87.0003 5.89892 87.0003ZM5.89892 77.132C3.45672 77.132 1.57458 78.8697 1.57458 81.3226C1.57458 83.7754 3.61969 85.397 5.91499 85.397C8.21029 85.397 10.2256 83.5864 10.2256 81.2201C10.2256 78.8538 8.24013 77.132 5.90122 77.132" fill="#E0E1D1"/>
<path d="M15.5645 86.7376V75.8467H17.1689V85.1457H23.8482V86.7376H15.5645Z" fill="#E0E1D1"/>
<path d="M35.2351 85.2914C34.2343 86.3573 33.1899 86.7376 31.7324 86.7376H26.3936V75.8467H31.6888C34.675 75.8467 36.867 78.2995 36.867 81.2489C36.867 82.7224 36.2496 84.2278 35.2328 85.2937M31.7026 77.4386H27.9658V85.1479H31.7324C33.8671 85.1479 35.2488 83.3966 35.2488 81.365C35.2488 79.3335 33.968 77.4386 31.7026 77.4386Z" fill="#E0E1D1"/>
<path d="M46.9164 75.8467H45.3418V86.7376H46.9164V75.8467Z" fill="#E0E1D1"/>
<path d="M57.9934 85.132C57.0524 86.4894 55.5512 86.9859 53.9468 86.9859C52.7556 86.9859 51.5482 86.7376 50.6209 85.9633C49.9599 85.4076 49.6202 84.7949 49.2529 84.0365L50.6944 83.3214C51.4289 84.8837 52.1519 85.3939 53.9032 85.3939C54.9774 85.3939 56.0815 85.1161 56.7127 84.1823C56.9468 83.8316 57.0661 83.4968 57.0661 82.4468V75.8467H58.6545V82.6655C58.6545 83.6858 58.5971 84.2711 57.9934 85.132Z" fill="#E0E1D1"/>
<path d="M63.1709 86.7376V75.8467H72.2052V77.4523H64.7753V80.2992H68.5121V81.8752H64.7753V85.1457H72.4852V86.7376H63.1709Z" fill="#E0E1D1"/>
<path d="M80.5013 86.7376H78.603L73.7783 75.8467H75.5136L79.5602 84.9566L83.6366 75.8467H85.4017L80.5013 86.7376Z" fill="#E0E1D1"/>
<path d="M95.8614 86.7376L94.2868 83.1916H89.3588L87.7268 86.7376H85.9893L90.9769 75.8604H92.742L97.6563 86.7376H95.8614ZM91.8285 77.7894L90.091 81.5837H93.5638L91.8262 77.7894H91.8285Z" fill="#E0E1D1"/>
<path d="M108.409 86.7376L101.789 78.4453V86.7376H100.215V75.8467H101.773L108.379 84.1686V75.8467H110V86.7376H108.409Z" fill="#E0E1D1"/>
<path d="M60.9376 47.686H49.4588C48.4052 47.686 47.4504 47.1189 46.9661 46.2057C46.1604 44.6843 45.1069 43.0696 43.9913 41.3614C40.3051 35.7064 36.1276 29.2976 37.5025 21.7363C38.3839 16.8921 43.1719 13.0318 46.3394 10.4764C47.3402 9.67021 48.2055 8.9733 48.7633 8.40165C51.4901 5.61628 50.7992 3.76924 50.3424 2.54851C50.1933 2.14995 50.0762 1.83565 50.0877 1.53503C50.1428 0.150314 53.627 0 55.1442 0H55.1603C56.3538 0 60.249 0.113874 60.3041 1.53503C60.3155 1.83338 60.1985 2.14767 60.0516 2.54395C59.5948 3.76696 58.9062 5.61173 61.6307 8.39937C62.1885 8.97102 63.0538 9.66793 64.0546 10.4742C67.2221 13.0272 72.0101 16.8898 72.8961 21.7318C74.271 29.2908 70.0935 35.6996 66.405 41.3546C65.2894 43.065 64.2359 44.6797 63.4303 46.2034C62.9459 47.1166 61.9911 47.6837 60.9376 47.6837M55.1741 0.767513C54.5796 0.767513 53.953 0.794843 53.3126 0.858613C51.3088 1.05675 50.8727 1.4872 50.8681 1.56463C50.8635 1.71039 50.9668 1.98597 51.0746 2.27749C51.536 3.50961 52.3921 5.80304 49.3233 8.93914C48.7334 9.54267 47.852 10.2532 46.8329 11.0754C43.569 13.7059 39.0978 17.3089 38.2692 21.8707C36.9471 29.1313 41.0373 35.4035 44.6455 40.9378C45.7702 42.6619 46.8306 44.2926 47.6569 45.8435C48.0058 46.5017 48.6967 46.9094 49.4588 46.9094H60.9376C61.6996 46.9094 62.3905 46.4994 62.7394 45.8435C63.5634 44.2903 64.6261 42.6596 65.7508 40.9355C69.359 35.4013 73.4492 29.1291 72.1294 21.8707C71.2985 17.3089 66.8273 13.7082 63.5634 11.0754C62.542 10.2532 61.6606 9.54267 61.0707 8.93914C58.0019 5.80304 58.8603 3.50733 59.3194 2.27521C59.4272 1.98369 59.5305 1.70812 59.5259 1.56236C59.4387 1.2139 57.5726 0.765236 55.1718 0.765236" fill="#E0E1D1"/>
<path d="M56.2555 47.6179H54.1461C53.4805 47.6179 52.8745 47.2284 52.6014 46.6226C52.3053 45.9667 52.0069 45.3108 51.7062 44.6526C49.8057 40.4871 47.8387 36.1826 46.6979 31.7051C45.9726 28.8559 45.2886 25.5103 45.743 22.3013C46.0827 19.9328 47.1501 17.9878 49.0138 16.3503C49.0712 16.3002 49.1814 16.225 49.4798 16.0246C49.7392 15.8492 50.2441 15.5099 50.4461 15.3436C50.4346 14.8335 50.4094 13.4556 50.4507 12.8088C50.5379 11.4354 54.3986 11.3967 55.5876 11.4172C57.2058 11.4446 59.9257 11.6655 59.9578 12.8224C59.9762 13.4601 59.9647 14.8312 59.9578 15.3413C60.1575 15.5053 60.6671 15.8492 60.9288 16.0269C61.1606 16.1817 61.3442 16.3093 61.3901 16.3503C63.2539 17.9878 64.3235 19.935 64.6609 22.3013C65.1154 25.5126 64.4337 28.8582 63.7061 31.7074C62.5676 36.1758 60.6051 40.4734 58.7092 44.6298C58.4062 45.2948 58.1032 45.9599 57.8026 46.6249C57.5294 47.2284 56.9235 47.6202 56.2578 47.6202M55.2318 12.1893C55.1882 12.1893 55.1423 12.1893 55.0987 12.1893C52.5716 12.2052 51.3275 12.6425 51.2242 12.8725C51.1806 13.5626 51.2242 15.2776 51.2265 15.4712C51.2265 15.7513 51.0911 15.872 49.9159 16.6668C49.7254 16.7944 49.5739 16.8969 49.5257 16.9356C47.8111 18.441 46.8241 20.2357 46.5143 22.4107C46.0805 25.4875 46.7461 28.7398 47.453 31.5183C48.5777 35.9275 50.5287 40.2024 52.4155 44.336C52.7162 44.9965 53.0169 45.6524 53.3129 46.3083C53.4598 46.634 53.7881 46.8458 54.1461 46.8458H56.2555C56.6136 46.8458 56.9418 46.634 57.0887 46.3083C57.3894 45.6433 57.6924 44.976 57.9954 44.311C59.8775 40.1864 61.8239 35.9184 62.9463 31.5183C63.6556 28.7421 64.3189 25.4875 63.8851 22.4107C63.5752 20.2334 62.5883 18.441 60.8714 16.931C60.8278 16.8946 60.674 16.7944 60.4858 16.6668C59.3083 15.872 59.1728 15.7513 59.1728 15.4848C59.1728 15.2798 59.1935 13.5603 59.1728 12.8452C59.0673 12.6311 57.7635 12.1893 55.2295 12.1893" fill="#E0E1D1"/>
<path d="M63.1044 19.7573C62.9965 18.9214 63.0631 18.0651 63.1273 17.2384C63.2696 15.4301 63.2949 14.3938 62.161 14.0863C61.7501 13.9747 61.4242 14.0408 61.1602 14.289C60.7379 14.683 60.5589 15.4961 60.6622 15.9766L59.9001 16.1361C59.7486 15.4278 59.9805 14.33 60.6277 13.7242C60.9537 13.4213 61.5183 13.107 62.3699 13.3393C64.1786 13.8313 64.0408 15.594 63.9077 17.2999C63.8457 18.0879 63.7815 18.9032 63.8802 19.6593L63.1067 19.7573H63.1044Z" fill="#E0E1D1"/>
<path d="M62.6982 17.9652H61.9178C61.9178 17.8331 61.9477 17.6532 61.9867 17.4255C62.0578 17.0041 62.2461 15.8859 61.9018 15.7948C61.748 15.8563 61.6585 16.3733 61.7067 16.8789L60.9308 16.9518C60.901 16.6466 60.8482 15.624 61.3532 15.1981C61.5575 15.0273 61.8237 14.9749 62.1037 15.0501C63.132 15.3234 62.8956 16.7195 62.7556 17.5553C62.7258 17.7238 62.6982 17.8992 62.6982 17.9675" fill="#E0E1D1"/>
<path d="M48.4656 17.9651H47.6852C47.6852 17.8968 47.6554 17.7214 47.6279 17.5529C47.4855 16.7171 47.2491 15.321 48.2797 15.0477C48.562 14.9725 48.8283 15.0272 49.0303 15.1957C49.5352 15.6193 49.4802 16.6442 49.4526 16.9494L48.6768 16.8765C48.725 16.3709 48.6332 15.8539 48.5253 15.7833C48.1374 15.8835 48.3256 16.9995 48.3968 17.4208C48.4358 17.6486 48.4656 17.8285 48.4656 17.9606" fill="#E0E1D1"/>
<path d="M47.2944 19.7573L46.5209 19.6594C46.6196 18.901 46.5553 18.0879 46.4934 17.2999C46.3602 15.5941 46.2225 13.8313 48.0312 13.3393C48.8805 13.1093 49.4474 13.4213 49.7733 13.7242C50.4206 14.33 50.6501 15.4255 50.5009 16.1361L49.7389 15.9767C49.8422 15.4961 49.6609 14.6831 49.2408 14.2891C48.9769 14.0408 48.6486 13.9748 48.2378 14.0864C47.1062 14.3938 47.1292 15.4324 47.2738 17.2384C47.338 18.0651 47.4046 18.9215 47.2967 19.7573" fill="#E0E1D1"/>
<path d="M55.1993 14.1883C52.0938 14.1883 50.6661 13.1885 50.6064 13.1452L51.0632 12.5166C51.0747 12.5257 52.3738 13.4139 55.2016 13.4139C58.0294 13.4139 59.3263 12.528 59.3401 12.5166L59.7968 13.1452C59.7372 13.1885 58.3095 14.1883 55.2039 14.1883" fill="#E0E1D1"/>
<path d="M55.2001 2.71472C52.2805 2.71472 50.4052 1.9381 50.3271 1.90621L50.6324 1.19336C50.6508 1.20019 52.448 1.94038 55.2001 1.94038C57.9521 1.94038 59.7471 1.20019 59.7654 1.19336L60.0707 1.90621C59.9927 1.9381 58.122 2.71472 55.2001 2.71472Z" fill="#E0E1D1"/>
<path d="M55.1993 23.1822C45.3731 23.1822 38.7947 19.2285 38.7305 19.1875L39.139 18.5293C39.201 18.568 45.6049 22.4101 55.1993 22.4101C66.5312 22.4101 71.1631 18.6045 71.209 18.5657L71.7162 19.1533C71.5234 19.3173 66.8548 23.1822 55.1993 23.1822Z" fill="#E0E1D1"/>
<path d="M55.2 26.0654C44.3891 26.0654 37.9531 22.2961 37.6846 22.1344L38.0862 21.4717C38.1505 21.5104 44.621 25.291 55.2 25.291C67.6015 25.291 72.2174 21.5446 72.261 21.5081L72.7659 22.1003C72.5731 22.262 67.8861 26.0654 55.2 26.0654Z" fill="#E0E1D1"/>
<path d="M56.6572 56.3289C56.6572 57.2376 55.9158 57.9733 55 57.9733C54.0842 57.9733 53.3428 57.2376 53.3428 56.3289C53.3428 55.4202 54.0842 54.6846 55 54.6846C55.9158 54.6846 56.6572 55.4202 56.6572 56.3289Z" fill="#E0E1D1"/>
</g>
<defs>
<clipPath id="clip0_646_45809">
<rect width="110" height="87" fill="white"/>
</clipPath>
</defs>
</svg>
