<svg width="135" height="151" viewBox="0 0 135 151" fill="none" xmlns="http://www.w3.org/2000/svg">
<path d="M122.242 68.604C122.193 69.4216 121.638 70.2514 120.899 70.5443C119.807 70.9958 118.654 70.227 118.178 69.8975C116.677 68.8847 116.055 67.3472 115.744 66.4442C114.487 62.8016 115.182 60.6052 114.987 58.5063C115.14 57.3348 115.219 55.6569 114.877 53.735C114.67 52.5392 114.334 51.5202 113.98 50.6965C113.395 50.7392 112.791 50.782 112.211 50.8064C112.638 51.6911 114.23 55.1322 112.961 59.1225C112.363 61.0261 111.32 62.3684 110.594 63.1616L92.9611 62.0817C92.9306 62.3013 92.772 63.8938 91.4541 64.7541C89.8921 65.7791 87.6407 65.1995 86.7804 63.906C85.6761 62.2952 86.9696 59.8547 87.958 58.7503C90.2765 56.1695 95.2308 56.0901 100.521 58.2988C99.9777 57.7253 99.0259 56.5477 98.8123 54.8516C98.5805 53.0334 99.2882 51.6361 99.8373 50.5318C100.496 49.2322 101.296 48.2987 101.851 47.7313C101.582 47.5543 101.314 47.3774 101.039 47.2005C100.576 47.6215 99.9777 48.256 99.4407 49.1346C98.8489 50.1047 98.5561 51.0077 98.4035 51.6484C96.9697 51.5385 94.7854 51.2091 92.4364 50.0437C91.0941 49.3786 90.0385 48.6343 89.2393 47.9692C89.8189 47.6825 90.8378 47.0662 91.7469 45.9192C92.5706 44.888 92.9123 43.8691 93.0709 43.2346C92.7353 43.1369 92.4059 43.0149 92.0703 42.8929C91.7164 43.8142 91.0087 45.1931 89.6237 46.1876C89.6237 46.1876 88.3058 47.1272 85.6273 47.7435C85.5845 47.7618 85.5662 47.7618 85.5479 47.7801H85.5296C84.5595 47.9204 83.5284 48.0546 82.424 48.1096C79.1537 48.2682 76.3349 47.835 74.1262 47.3042C74.0347 48.7807 73.9248 50.2328 73.8394 51.7094C73.6198 51.6972 70.9779 51.7094 69.8308 49.8423C68.7936 48.1401 69.7576 45.791 70.6972 44.4914C73.4489 40.733 78.9951 42.9966 82.5461 39.0307C83.5772 37.8898 84.0714 36.6634 84.3216 35.858C84.0531 35.6628 83.7847 35.4858 83.5162 35.3089C83.382 35.9007 82.9122 37.2918 81.6065 38.3535C80.5143 39.226 79.3551 39.4395 78.7937 39.5249C75.1939 40.1473 71.887 37.5786 71.0267 36.8891C72.07 37.8532 72.2531 39.4639 71.4416 40.6171C70.6301 41.7885 69.0438 42.1912 67.7625 41.514C67.6404 41.2455 67.4452 40.7757 67.2805 40.1839V40.1656C67.0242 39.1467 66.8839 37.78 67.433 36.4132C67.4574 36.3339 67.5001 36.2546 67.5489 36.1814C67.5489 36.1814 67.5306 36.1631 67.5489 36.1631C68.8485 33.2771 72.8022 31.4955 77.183 32.4657C77.4209 32.5023 80.0506 32.7402 81.8383 30.7085C83.1745 29.1709 83.4857 26.9622 82.6681 25.0342C83.0952 24.601 83.7419 23.881 84.0531 23.0146C88.9342 28.6218 93.7177 32.2338 97.4578 34.6072C100.868 36.761 104.175 38.3413 107.043 39.8971C109.911 41.4347 112.345 42.9417 114.06 44.9491L114.078 44.9674C114.468 45.4921 114.834 45.9924 115.164 46.4927V46.511C117.916 50.6416 118.55 54.0035 118.581 56.4135C118.617 59.4581 117.684 61.9475 119.374 64.4307C120.545 66.1818 122.382 66.975 122.242 68.6101V68.604Z" fill="#E0E1D1"/>
<path d="M114.078 44.9673C114.475 45.4859 114.835 45.9984 115.164 46.4926C114.853 45.9496 114.487 45.4432 114.078 44.9673Z" fill="#E0E1D1"/>
<path d="M85.5488 47.7739C85.5488 47.7739 85.6037 47.7678 85.6342 47.7617C85.6342 47.7617 85.5793 47.7678 85.5549 47.7739H85.5488Z" fill="#E0E1D1"/>
<path d="M79.739 18.7373C79.3242 18.6946 78.9215 18.6458 78.5066 18.6031C77.4876 18.2431 76.4138 18.0967 75.6145 18.0845C75.0166 18.0845 74.3088 18.1455 73.5767 18.3224C71.9171 18.2797 70.2758 18.2431 68.6163 18.2187C68.1953 18.1943 67.7743 18.1882 67.3594 18.1821C67.3838 18.4017 67.5668 19.6586 68.4759 20.5555C68.6834 20.8057 68.9274 21.0009 69.2203 21.1596C69.3545 21.2267 69.4704 21.2938 69.5864 21.3426C69.2569 22.5019 69.6108 23.5879 69.8548 24.1797C69.1776 26.4189 69.7206 28.6154 71.1666 29.6039C71.9537 30.153 73.4668 30.6655 74.6139 29.915C75.0959 29.5855 75.5474 29.012 75.6694 28.3775C75.6877 29.0181 76.0111 29.6771 76.5053 30.092C77.5181 30.9156 79.0435 30.4702 79.8184 29.976C81.1973 29.0791 81.7586 27.0108 81.1302 24.8875C81.362 24.4238 81.8013 23.3866 81.6915 22.2212C81.6915 22.1785 81.6793 22.1419 81.6793 22.1175L81.7342 22.2029C82.0149 22.1785 82.3199 22.1175 82.6494 21.9771C84.2907 21.2999 84.7788 19.5244 84.8581 19.2498C83.1497 19.0668 81.4535 18.9021 79.7451 18.7373H79.739ZM72.1917 22.9412C71.3497 22.63 70.9897 21.9649 70.8982 21.8002C71.0629 21.6904 71.7035 21.3487 72.5577 21.5012C73.6255 21.7087 74.1502 22.5995 74.2234 22.7215C74.1014 22.7947 73.2045 23.3011 72.1856 22.9351L72.1917 22.9412ZM75.7182 27.8406C75.7182 27.8406 75.7182 27.9016 75.6938 27.9199C75.5718 26.6935 74.0526 26.2359 74.2234 25.7661C74.4187 25.156 77.0727 25.3024 77.2375 25.9308C77.3473 26.4006 76.0111 26.6752 75.7182 27.8406ZM78.8788 23.35C77.8232 23.5879 76.9995 22.9778 76.8836 22.8862C76.969 22.7703 77.6036 21.9466 78.7079 21.8795C79.5499 21.8307 80.1478 22.2456 80.3004 22.3798C80.1905 22.5324 79.7512 23.1486 78.8788 23.3561V23.35Z" fill="#E0E1D1"/>
<path d="M75.6688 28.3836C75.6994 28.2433 75.7055 28.0969 75.6933 27.9565C75.6689 28.0969 75.6566 28.2433 75.6688 28.3836Z" fill="#E0E1D1"/>
<path d="M81.6738 22.1113C81.6738 22.1418 81.6799 22.1784 81.686 22.2089C81.6982 22.2089 81.7165 22.2089 81.7287 22.2089L81.6738 22.1174V22.1113Z" fill="#E0E1D1"/>
<path d="M85.5488 47.7739C85.5488 47.7739 85.6037 47.7678 85.6342 47.7617C85.6342 47.7617 85.5793 47.7678 85.5549 47.7739H85.5488Z" fill="#E0E1D1"/>
<path d="M85.5488 47.7739C85.5488 47.7739 85.6037 47.7678 85.6342 47.7617C85.6342 47.7617 85.5793 47.7678 85.5549 47.7739H85.5488Z" fill="#E0E1D1"/>
<path d="M11.7146 68.604C11.7634 69.4216 12.3187 70.2514 13.0569 70.5443C14.1491 70.9958 15.3022 70.227 15.7781 69.8975C17.2791 68.8847 17.9014 67.3472 18.2126 66.4442C19.4695 62.8016 18.7739 60.6052 18.9691 58.5063C18.8166 57.3348 18.7373 55.6569 19.079 53.735C19.2864 52.5392 19.622 51.5202 19.9759 50.6965C20.5616 50.7392 21.1656 50.782 21.7453 50.8064C21.3182 51.6911 19.7257 55.1322 20.9948 59.1225C21.5927 61.0261 22.6361 62.3684 23.3621 63.1616L40.9951 62.0817C41.0256 62.3013 41.1842 63.8938 42.5021 64.7541C44.0641 65.7791 46.3155 65.1995 47.1758 63.906C48.2801 62.2952 46.9866 59.8547 45.9982 58.7503C43.6797 56.1695 38.7254 56.0901 33.4355 58.2988C33.9785 57.7253 34.9303 56.5477 35.1439 54.8516C35.3757 53.0334 34.668 51.6361 34.1188 50.5318C33.4599 49.2322 32.6606 48.2987 32.1054 47.7313C32.3738 47.5543 32.6423 47.3774 32.9169 47.2005C33.3806 47.6215 33.9785 48.256 34.5154 49.1346C35.1073 50.1047 35.4001 51.0077 35.5527 51.6484C36.9865 51.5385 39.1708 51.2091 41.5198 50.0437C42.8621 49.3786 43.9176 48.6343 44.7169 47.9692C44.1373 47.6825 43.1183 47.0662 42.2092 45.9192C41.3856 44.888 41.0439 43.8691 40.8853 43.2346C41.2208 43.1369 41.5503 43.0149 41.8859 42.8929C42.2398 43.8142 42.9475 45.1931 44.3325 46.1876C44.3325 46.1876 45.6504 47.1272 48.3289 47.7435C48.3716 47.7618 48.3899 47.7618 48.4082 47.7801H48.4265C49.3967 47.9204 50.4278 48.0546 51.5321 48.1096C54.8025 48.2682 57.6213 47.835 59.83 47.3042C59.9215 48.7807 60.0313 50.2328 60.1167 51.7094C60.3364 51.6972 62.9783 51.7094 64.1253 49.8423C65.1626 48.1401 64.1986 45.791 63.259 44.4914C60.5072 40.733 54.9611 42.9966 51.4101 39.0307C50.379 37.8898 49.8848 36.6634 49.6346 35.858C49.9031 35.6628 50.1715 35.4858 50.44 35.3089C50.5742 35.9007 51.044 37.2918 52.3497 38.3535C53.4419 39.226 54.6011 39.4395 55.1624 39.5249C58.7622 40.1473 62.0692 37.5786 62.9295 36.8891C61.8861 37.8532 61.7031 39.4639 62.5146 40.6171C63.3261 41.7885 64.9124 42.1912 66.1937 41.514C66.3157 41.2455 66.511 40.7757 66.6757 40.1839V40.1656C66.932 39.1467 67.0723 37.78 66.5232 36.4132C66.4988 36.3339 66.4561 36.2546 66.4073 36.1814C66.4073 36.1814 66.4256 36.1631 66.4073 36.1631C65.1077 33.2771 61.154 31.4955 56.7732 32.4657C56.5353 32.5023 53.9056 32.7402 52.1179 30.7085C50.7817 29.1709 50.4705 26.9622 51.2881 25.0342C50.861 24.601 50.2142 23.881 49.9031 23.0146C45.022 28.6218 40.2385 32.2338 36.4984 34.6072C33.0877 36.761 29.7808 38.3413 26.9131 39.8971C24.0455 41.4347 21.611 42.9417 19.8966 44.9491L19.8783 44.9674C19.4878 45.4921 19.1217 45.9924 18.7922 46.4927V46.511C16.0405 50.6416 15.406 54.0035 15.3754 56.4135C15.3388 59.4581 16.2723 61.9475 14.5823 64.4307C13.4108 66.1818 11.5743 66.975 11.7146 68.6101V68.604Z" fill="#E0E1D1"/>
<path d="M19.879 44.9673C19.4824 45.4859 19.1224 45.9984 18.793 46.4926C19.1041 45.9496 19.4702 45.4432 19.879 44.9673Z" fill="#E0E1D1"/>
<path d="M48.4077 47.7739C48.4077 47.7739 48.3528 47.7678 48.3223 47.7617C48.3223 47.7617 48.3772 47.7678 48.4016 47.7739H48.4077Z" fill="#E0E1D1"/>
<path d="M49.1035 19.2498C49.1828 19.5244 49.6709 21.2999 51.3122 21.9771C51.6417 22.1175 51.9467 22.1785 52.2274 22.2029L52.2823 22.1175C52.2823 22.1175 52.264 22.1785 52.2701 22.2212C52.1603 23.3866 52.6057 24.4238 52.8314 24.8875C52.203 27.0108 52.7643 29.0791 54.1432 29.976C54.912 30.4702 56.4435 30.9156 57.4563 30.092C57.9505 29.6832 58.2739 29.0181 58.2922 28.3775C58.4081 29.012 58.8657 29.5855 59.3477 29.915C60.4948 30.6655 62.0018 30.153 62.795 29.6039C64.2349 28.6154 64.784 26.4189 64.1068 24.1797C64.3508 23.5818 64.7047 22.5019 64.3752 21.3426C64.4912 21.2938 64.6071 21.2267 64.7413 21.1596C65.0342 21.0009 65.2782 20.8057 65.4857 20.5555C66.3948 19.6586 66.5778 18.4078 66.6022 18.1821C66.1812 18.1821 65.7602 18.1943 65.3453 18.2187C63.6858 18.2431 62.0445 18.2797 60.3849 18.3224C59.6528 18.1455 58.9511 18.0906 58.3471 18.0845C57.5478 18.0906 56.474 18.237 55.455 18.6031C55.0401 18.6458 54.6375 18.6946 54.2226 18.7373C52.5081 18.9021 50.818 19.0668 49.1096 19.2498H49.1035ZM59.726 22.7276C59.7992 22.6056 60.3239 21.7087 61.3917 21.5073C62.2459 21.3548 62.8865 21.6965 63.0512 21.8063C62.9597 21.971 62.5997 22.6361 61.7577 22.9473C60.7388 23.3072 59.848 22.8069 59.7199 22.7337L59.726 22.7276ZM56.718 25.9369C56.8767 25.3085 59.5368 25.1621 59.7321 25.7722C59.9029 26.242 58.3898 26.6935 58.2617 27.926C58.2434 27.9077 58.2373 27.865 58.2373 27.8467C57.9444 26.6813 56.6082 26.4067 56.718 25.9369ZM53.6551 22.3798C53.8077 22.2517 54.4056 21.8307 55.2476 21.8795C56.3519 21.9527 56.9865 22.7764 57.0719 22.8862C56.956 22.9717 56.1323 23.5818 55.0767 23.35C54.2043 23.1425 53.765 22.5263 53.6551 22.3737V22.3798Z" fill="#E0E1D1"/>
<path d="M58.2862 28.3836C58.2557 28.2433 58.2495 28.0969 58.2618 27.9565C58.2862 28.0969 58.2984 28.2433 58.2862 28.3836Z" fill="#E0E1D1"/>
<path d="M52.2834 22.1113C52.2834 22.1418 52.2773 22.1784 52.2712 22.2089C52.259 22.2089 52.2407 22.2089 52.2285 22.2089L52.2834 22.1174V22.1113Z" fill="#E0E1D1"/>
<path d="M48.4077 47.7739C48.4077 47.7739 48.3528 47.7678 48.3223 47.7617C48.3223 47.7617 48.3772 47.7678 48.4016 47.7739H48.4077Z" fill="#E0E1D1"/>
<path d="M48.4077 47.7739C48.4077 47.7739 48.3528 47.7678 48.3223 47.7617C48.3223 47.7617 48.3772 47.7678 48.4016 47.7739H48.4077Z" fill="#E0E1D1"/>
<path d="M134.822 72.8503V67.414C134.822 30.2445 104.577 0 67.4079 0C30.2384 0 0 30.2445 0 67.414V150.24H26.1565V126.066H9.69507V113.967H26.1627V89.7877H9.69507V82.6064H125.066V89.7877H108.598V113.967H125.066V126.066H108.598V150.24H134.822V72.8503ZM66.9686 49.5065C56.041 49.5065 47.1452 58.3962 47.1452 69.3298V72.8564H9.75608V67.4201C9.75608 35.6198 35.6198 9.75608 67.414 9.75608C99.2082 9.75608 125.066 35.6198 125.066 67.414V72.8503H86.7919V69.3237C86.7919 58.3962 77.9022 49.5004 66.9686 49.5004" fill="#E0E1D1"/>
</svg>
