<svg width="231" height="512" viewBox="0 0 231 512" fill="none" xmlns="http://www.w3.org/2000/svg">
<g clip-path="url(#clip0_865_597)">
<path d="M188.635 233.552C188.469 236.336 186.578 239.16 184.065 240.158C180.347 241.695 176.421 239.077 174.801 237.956C169.691 234.508 167.573 229.273 166.513 226.199C162.234 213.799 164.602 206.321 163.938 199.176C164.457 195.188 164.727 189.475 163.564 182.932C162.858 178.861 161.715 175.392 160.51 172.588C158.516 172.734 156.46 172.879 154.487 172.962C155.941 175.974 161.362 187.689 157.042 201.274C155.006 207.754 151.454 212.324 148.982 215.024L88.9531 211.348C88.8492 212.095 88.3092 217.517 83.8225 220.445C78.5051 223.935 70.8404 221.962 67.9117 217.558C64.1521 212.075 68.5556 203.766 71.9206 200.006C79.8137 191.22 96.68 190.95 114.689 198.469C112.84 196.517 109.6 192.508 108.873 186.734C108.083 180.544 110.493 175.787 112.362 172.027C114.606 167.603 117.327 164.425 119.217 162.493C118.303 161.891 117.389 161.289 116.454 160.686C114.876 162.12 112.84 164.28 111.012 167.271C108.997 170.573 108 173.648 107.481 175.829C102.6 175.455 95.1637 174.333 87.1667 170.366C82.597 168.102 79.0036 165.568 76.2825 163.303C78.2558 162.327 81.7246 160.229 84.8196 156.324C87.6237 152.814 88.7869 149.345 89.3269 147.185C88.1845 146.853 87.0629 146.437 85.9204 146.022C84.7157 149.158 82.3062 153.853 77.5911 157.238C77.5911 157.238 73.1045 160.437 63.9859 162.535C63.8405 162.597 63.7782 162.597 63.7159 162.66H63.6535C60.3509 163.137 56.8405 163.594 53.0809 163.781C41.9475 164.321 32.3511 162.847 24.8319 161.039C24.5203 166.066 24.1464 171.01 23.8556 176.036C23.1079 175.995 14.1139 176.036 10.2088 169.68C6.67771 163.885 9.9596 155.888 13.1584 151.464C22.5263 138.669 41.4074 146.375 53.4963 132.873C57.0067 128.989 58.6892 124.814 59.5408 122.072C58.6269 121.408 57.713 120.805 56.799 120.203C56.342 122.218 54.7426 126.954 50.2976 130.568C46.5795 133.538 42.6329 134.265 40.722 134.556C28.4669 136.675 17.2088 127.93 14.28 125.583C17.8319 128.865 18.4551 134.348 15.6925 138.274C12.9299 142.262 7.52934 143.633 3.16735 141.327C2.75192 140.413 2.08724 138.814 1.52641 136.799V136.737C0.654015 133.268 0.176274 128.615 2.0457 123.963C2.12878 123.693 2.27419 123.422 2.44036 123.173C2.44036 123.173 2.37804 123.111 2.44036 123.111C6.86466 113.286 20.3245 107.221 35.2383 110.523C36.0484 110.648 45.0009 111.458 51.0869 104.541C55.6358 99.3069 56.6952 91.7877 53.9118 85.2239C55.3658 83.7492 57.5675 81.2982 58.6269 78.3486C75.244 97.4375 91.5287 109.734 104.262 117.814C115.873 125.147 127.131 130.526 136.893 135.823C146.656 141.057 154.944 146.188 160.78 153.022L160.843 153.084C162.172 154.87 163.418 156.574 164.54 158.277V158.339C173.908 172.401 176.068 183.846 176.172 192.051C176.297 202.416 173.119 210.891 178.872 219.345C182.86 225.306 189.113 228.006 188.635 233.573V233.552Z" fill="#024735"/>
<path d="M160.844 153.081C162.194 154.847 163.419 156.591 164.541 158.274C163.482 156.425 162.235 154.701 160.844 153.081Z" fill="#024735"/>
<path d="M63.7168 162.636C63.7168 162.636 63.9037 162.615 64.0076 162.595C64.0076 162.595 63.8206 162.616 63.7376 162.636H63.7168Z" fill="#024735"/>
<path d="M43.942 63.786C42.5295 63.6406 41.1586 63.4744 39.7461 63.329C36.2773 62.1035 32.6216 61.605 29.9005 61.5635C27.8649 61.5635 25.4554 61.7712 22.9629 62.3736C17.3131 62.2282 11.7256 62.1035 6.07577 62.0204C4.64255 61.9374 3.20933 61.9166 1.79688 61.8958C1.87996 62.6436 2.5031 66.9225 5.59804 69.9759C6.30426 70.8275 7.1351 71.4922 8.13213 72.0322C8.5891 72.2607 8.98377 72.4892 9.37842 72.6554C8.25677 76.6019 9.4615 80.2992 10.2924 82.3141C7.98673 89.9372 9.83539 97.4148 14.7582 100.78C17.4377 102.649 22.589 104.394 26.494 101.839C28.135 100.717 29.672 98.765 30.0875 96.6048C30.1498 98.7857 31.2507 101.029 32.9331 102.442C36.3812 105.246 41.574 103.729 44.212 102.047C48.9063 98.9935 50.8173 91.952 48.6778 84.7235C49.4671 83.1449 50.9627 79.6138 50.5888 75.6465C50.5888 75.5011 50.5472 75.3764 50.5472 75.2933L50.7342 75.5841C51.6897 75.5011 52.7282 75.2933 53.8499 74.8156C59.4374 72.51 61.0991 66.4655 61.3691 65.5308C55.5531 64.9077 49.7787 64.3468 43.9627 63.786H43.942ZM18.2478 78.0975C15.3813 77.0381 14.1558 74.7741 13.8443 74.2132C14.4051 73.8393 16.5861 72.6762 19.4941 73.1954C23.1291 73.9017 24.9154 76.9343 25.1646 77.3497C24.7492 77.599 21.6958 79.323 18.227 78.0767L18.2478 78.0975ZM30.2536 94.7769C30.2536 94.7769 30.2536 94.9846 30.1705 95.0469C29.7551 90.8719 24.5831 89.314 25.1646 87.7146C25.8293 85.6375 34.8649 86.136 35.4257 88.2754C35.7996 89.8748 31.2507 90.8096 30.2536 94.7769ZM41.0132 79.4892C37.4197 80.2992 34.6156 78.2221 34.221 77.9105C34.5118 77.5159 36.672 74.7117 40.4316 74.4833C43.298 74.3171 45.3336 75.7295 45.8529 76.1865C45.479 76.7058 43.9835 78.8037 41.0132 79.5099V79.4892Z" fill="#024735"/>
<path d="M30.0844 96.6249C30.1883 96.1472 30.209 95.6486 30.1675 95.1709C30.0844 95.6486 30.0429 96.1472 30.0844 96.6249Z" fill="#024735"/>
<path d="M50.5273 75.2725C50.5273 75.3763 50.5481 75.5009 50.5689 75.6048C50.6104 75.6048 50.6727 75.6048 50.7143 75.6048L50.5273 75.2932V75.2725Z" fill="#024735"/>
<path d="M63.7168 162.636C63.7168 162.636 63.9037 162.615 64.0076 162.595C64.0076 162.595 63.8206 162.616 63.7376 162.636H63.7168Z" fill="#024735"/>
<path d="M63.7168 162.636C63.7168 162.636 63.9037 162.615 64.0076 162.595C64.0076 162.595 63.8206 162.616 63.7376 162.636H63.7168Z" fill="#024735"/>
<path d="M230.317 248.01V229.503C230.317 102.964 127.353 0 0.813995 0C-125.725 0 -228.668 102.964 -228.668 229.503V511.474H-139.621V429.178H-195.662V387.988H-139.6V305.671H-195.662V281.223H197.103V305.671H141.041V387.988H197.103V429.178H141.041V511.474H230.317V248.01ZM-0.681534 168.539C-37.883 168.539 -68.1677 198.803 -68.1677 236.025V248.031H-195.455V229.523C-195.455 121.263 -107.405 33.2134 0.834763 33.2134C109.074 33.2134 197.103 121.263 197.103 229.503V248.01H66.8046V236.004C66.8046 198.803 36.5407 168.518 -0.681534 168.518" fill="#024735"/>
</g>
<defs>
<clipPath id="clip0_865_597">
<rect width="229.596" height="512" fill="white" transform="translate(0.927734)"/>
</clipPath>
</defs>
</svg>
