<svg width="116" height="14" viewBox="0 0 116 14" fill="none" xmlns="http://www.w3.org/2000/svg">
<path d="M2.53601 9.61867C2.64043 9.61867 2.72994 9.69309 2.75977 9.81214C2.93879 10.9878 3.92336 11.7766 5.45988 11.7766C6.75772 11.7766 7.71245 11.2111 7.71245 10.1842C7.71245 9.08292 6.63837 8.85969 4.44547 8.42811C2.23765 8.01141 0.28344 7.31196 0.28344 4.64808C0.28344 2.32648 2.20782 0.689453 5.17644 0.689453C8.1749 0.689453 10.1142 2.19253 10.2634 4.55878C10.2783 4.69272 10.1739 4.7969 10.0396 4.7969H7.71245C7.60803 4.7969 7.51852 4.72248 7.48868 4.61831C7.29475 3.60633 6.45936 2.92175 5.17644 2.92175C3.98303 2.92175 3.1178 3.42774 3.1178 4.43972C3.1178 5.51123 4.14712 5.73446 6.32511 6.13628C8.57768 6.55298 10.5617 7.22267 10.5468 9.85679C10.5319 12.3123 8.50309 13.994 5.43004 13.994C2.1929 13.994 0.134259 12.3421 0 9.82702C0 9.69308 0.0895062 9.58891 0.223765 9.58891L2.53601 9.61867Z" fill="white"/>
<path d="M25.8374 0.793945H28.2093C28.3286 0.793945 28.433 0.89812 28.433 1.01718V8.38378C28.433 10.4673 29.2087 11.5834 30.9989 11.5834C32.8188 11.5834 33.5796 10.4673 33.5796 8.38378V1.01718C33.5796 0.89812 33.6841 0.793945 33.8034 0.793945H36.1753C36.2947 0.793945 36.3991 0.89812 36.3991 1.01718V8.23496C36.3991 11.9555 34.5493 13.9943 30.9989 13.9943C27.4783 13.9943 25.6136 11.9555 25.6136 8.23496V1.01718C25.6136 0.89812 25.718 0.793945 25.8374 0.793945Z" fill="white"/>
<path d="M40.7253 13.6669V1.01718C40.7253 0.89812 40.8298 0.793945 40.9491 0.793945H45.499C49.5865 0.793945 52.3015 3.47272 52.3015 7.32716C52.3015 11.1667 49.5865 13.8901 45.499 13.8901H40.9491C40.8148 13.8901 40.7253 13.786 40.7253 13.6669ZM43.5299 11.5537H45.499C48.0052 11.5537 49.4224 9.81246 49.4224 7.32716C49.4224 4.82698 48.0201 3.13043 45.499 3.13043H43.5299V11.5537Z" fill="white"/>
<path d="M55.9565 0.793945H58.3284C58.4477 0.793945 58.5522 0.89812 58.5522 1.01718V13.6669C58.5522 13.786 58.4477 13.8901 58.3284 13.8901H55.9565C55.8372 13.8901 55.7327 13.786 55.7327 13.6669V1.01718C55.7327 0.89812 55.8372 0.793945 55.9565 0.793945Z" fill="white"/>
<path d="M68.4721 13.994C64.6085 13.994 61.968 11.1515 61.968 7.34172C61.968 3.53192 64.6085 0.689453 68.4721 0.689453C72.3358 0.689453 74.9762 3.53192 74.9762 7.34172C74.9762 11.1515 72.3358 13.994 68.4721 13.994ZM68.4721 11.6277C70.665 11.6277 72.0971 9.81214 72.0971 7.34172C72.0971 4.8713 70.665 3.0557 68.4721 3.0557C66.2643 3.0557 64.8322 4.8713 64.8322 7.34172C64.8322 9.81214 66.2643 11.6277 68.4721 11.6277Z" fill="white"/>
<path d="M84.0761 13.994C80.481 13.994 77.9449 11.211 77.9449 7.34172C77.9449 3.47239 80.481 0.689453 84.0761 0.689453C87.7011 0.689453 90.2073 3.47239 90.2073 7.34172C90.2073 11.211 87.6862 13.994 84.0761 13.994ZM84.0761 13.0564C87.0895 13.0564 89.178 10.6753 89.178 7.32684C89.178 3.97838 87.0895 1.59726 84.0761 1.59726C81.0777 1.59726 78.9892 3.97838 78.9892 7.32684C78.9892 10.6753 81.0777 13.0564 84.0761 13.0564Z" fill="white"/>
<path d="M93.6236 13.6669V1.01718C93.6236 0.89812 93.728 0.793945 93.8474 0.793945H94.459C94.5336 0.793945 94.6082 0.823711 94.638 0.898121L102.336 12.0596V1.01718C102.336 0.89812 102.44 0.793945 102.559 0.793945H103.111C103.231 0.793945 103.335 0.89812 103.335 1.01718V13.6669C103.335 13.786 103.231 13.8901 103.111 13.8901H102.5C102.425 13.8901 102.35 13.8604 102.321 13.786L94.6231 2.62444V13.6669C94.6231 13.786 94.5187 13.8901 94.3993 13.8901H93.8474C93.728 13.8901 93.6236 13.786 93.6236 13.6669Z" fill="white"/>
<path d="M107.9 0.793945H115.538C115.657 0.793945 115.761 0.89812 115.761 1.01718V1.50829C115.761 1.62734 115.657 1.73152 115.538 1.73152H108.69V6.73188H114.389C114.508 6.73188 114.613 6.83605 114.613 6.95511V7.44622C114.613 7.56527 114.508 7.66945 114.389 7.66945H108.69V12.9526H115.776C115.896 12.9526 116 13.0567 116 13.1758V13.6669C116 13.786 115.896 13.8901 115.776 13.8901H107.9C107.78 13.8901 107.676 13.786 107.676 13.6669V1.01718C107.676 0.89812 107.765 0.793945 107.9 0.793945Z" fill="white"/>
<path d="M13.1725 2.32696L18.9755 0.898281C19.1098 0.868517 19.244 0.957808 19.244 1.10663V13.176C19.244 13.2653 19.1844 13.3545 19.0799 13.3843L16.5887 13.9945C16.4544 14.0242 16.3202 13.9349 16.3202 13.7861V4.30627C16.3202 4.17233 16.1859 4.06815 16.0516 4.09792L13.2769 4.78249C13.1427 4.81225 13.0084 4.72297 13.0084 4.57415V2.5353C13.0084 2.43113 13.083 2.34184 13.1725 2.32696Z" fill="#00AEEF"/>
<path d="M22.8243 0.213461V2.26718C22.8243 2.35648 22.7646 2.44577 22.6602 2.47553L20.5568 2.9964C20.4225 3.02616 20.2883 2.92199 20.2883 2.78806V0.734333C20.2883 0.64504 20.3479 0.555749 20.4524 0.525985L22.5558 0.00511377C22.7049 -0.0246503 22.8243 0.079523 22.8243 0.213461Z" fill="#00AEEF"/>
</svg>
