<?xml version="1.0" encoding="utf-8"?>
<!-- Generator: Adobe Illustrator 23.1.0, SVG Export Plug-In . SVG Version: 6.00 Build 0)  -->
<svg version="1.1" id="Слой_1" xmlns="http://www.w3.org/2000/svg" xmlns:xlink="http://www.w3.org/1999/xlink" x="0px" y="0px"
	 viewBox="0 0 147 141" style="enable-background:new 0 0 147 141;" xml:space="preserve">
<style type="text/css">
	.st0{clip-path:url(#SVGID_2_);}
	.st1{fill:#590923;}
</style>
<g>
	<defs>
		<rect id="SVGID_1_" x="6.5" width="134" height="141"/>
	</defs>
	<clipPath id="SVGID_2_">
		<use xlink:href="#SVGID_1_"  style="overflow:visible;"/>
	</clipPath>
	<g class="st0">
		<path class="st1" d="M73.5,0c37,0,67,30.1,67,67.5v3h-8.8v70.6H14.1V70.5l-7.6,0V67C6.5,30.1,36.6,0,73.5,0 M72.9,52.8
			c-6.1,0-11.2,4.4-12.5,10.1h24.9C84.2,57.2,79,52.8,72.9,52.8z M59.9,48.1c3.6-2.7,8.1-4.3,13-4.3s9.4,1.6,13,4.3l18.8-18.8
			C96.1,22.1,85,17.8,72.9,17.8s-23.2,4.3-31.8,11.5L59.9,48.1L59.9,48.1z M111.1,35.7L91.9,54.9c1.4,2.4,2.3,5.2,2.6,8.1h27.9
			C121.6,52.7,117.5,43.2,111.1,35.7 M86.1,72H59.9v60h26.2V72z M51.3,63c0.3-2.9,1.3-5.6,2.6-8.1L34.7,35.7
			c-6.3,7.5-10.4,17-11.3,27.3H51.3L51.3,63z M122.7,72H95.2v60h27.5L122.7,72L122.7,72z M50.8,72H23.2v60h27.7V72z"/>
	</g>
</g>
</svg>
