<svg width="229" height="512" viewBox="0 0 229 512" fill="none" xmlns="http://www.w3.org/2000/svg">
<g clip-path="url(#clip0_865_568)">
<path d="M40.3559 233.551C40.5221 236.335 42.4123 239.16 44.9256 240.157C48.6437 241.694 52.5695 239.076 54.1897 237.955C59.2994 234.507 61.4181 229.272 62.4774 226.198C66.7563 213.798 64.3884 206.32 65.0531 199.175C64.5338 195.187 64.2638 189.474 65.427 182.931C66.1332 178.86 67.2756 175.391 68.4803 172.587C70.4744 172.733 72.5308 172.878 74.504 172.961C73.05 175.973 67.6287 187.688 71.9492 201.273C73.9847 207.753 77.5367 212.323 80.0084 215.023L140.038 211.347C140.142 212.094 140.682 217.516 145.168 220.445C150.486 223.934 158.15 221.961 161.079 217.557C164.839 212.074 160.435 203.765 157.07 200.006C149.177 191.219 132.311 190.949 114.302 198.468C116.151 196.516 119.391 192.507 120.118 186.733C120.907 180.543 118.498 175.786 116.628 172.026C114.385 167.602 111.664 164.424 109.774 162.492C110.688 161.89 111.602 161.288 112.536 160.685C114.115 162.119 116.151 164.279 117.978 167.27C119.993 170.572 120.99 173.647 121.51 175.828C126.391 175.454 133.827 174.332 141.824 170.365C146.394 168.101 149.987 165.567 152.708 163.303C150.735 162.326 147.266 160.228 144.171 156.323C141.367 152.813 140.204 149.344 139.664 147.184C140.806 146.852 141.928 146.436 143.07 146.021C144.275 149.157 146.684 153.852 151.4 157.237C151.4 157.237 155.886 160.436 165.005 162.534C165.15 162.596 165.213 162.596 165.275 162.659H165.337C168.64 163.136 172.15 163.593 175.91 163.78C187.043 164.32 196.64 162.846 204.159 161.038C204.47 166.065 204.844 171.009 205.135 176.035C205.883 175.994 214.877 176.035 218.782 169.679C222.313 163.884 219.031 155.887 215.832 151.463C206.464 138.668 187.583 146.374 175.494 132.872C171.984 128.988 170.302 124.813 169.45 122.071C170.364 121.407 171.278 120.804 172.192 120.202C172.649 122.217 174.248 126.953 178.693 130.567C182.411 133.537 186.358 134.264 188.269 134.555C200.524 136.674 211.782 127.929 214.711 125.582C211.159 128.864 210.536 134.347 213.298 138.273C216.061 142.261 221.461 143.632 225.823 141.326C226.239 140.412 226.903 138.813 227.464 136.798V136.736C228.337 133.267 228.814 128.614 226.945 123.962C226.862 123.692 226.717 123.421 226.55 123.172C226.55 123.172 226.613 123.11 226.55 123.11C222.126 113.285 208.666 107.22 193.752 110.522C192.942 110.647 183.99 111.457 177.904 104.54C173.355 99.306 172.296 91.7867 175.079 85.223C173.625 83.7482 171.423 81.2972 170.364 78.3477C153.747 97.4365 137.462 109.733 124.729 117.813C113.118 125.146 101.86 130.525 92.0974 135.822C82.3348 141.056 74.0471 146.187 68.2103 153.021L68.148 153.083C66.8186 154.869 65.5724 156.573 64.4507 158.276V158.338C55.0828 172.4 52.9226 183.845 52.8187 192.05C52.6941 202.415 55.8721 210.89 50.1185 219.344C46.1304 225.305 39.8782 228.005 40.3559 233.572V233.551Z" fill="#48061B"/>
<path d="M68.1504 153.081C66.8003 154.847 65.5748 156.591 64.4531 158.274C65.5125 156.425 66.7588 154.701 68.1504 153.081Z" fill="#48061B"/>
<path d="M165.273 162.637C165.273 162.637 165.086 162.616 164.982 162.596C164.982 162.596 165.169 162.616 165.252 162.637H165.273Z" fill="#48061B"/>
<path d="M167.643 65.5308C167.913 66.4655 169.574 72.51 175.162 74.8156C176.283 75.2933 177.322 75.5011 178.278 75.5841L178.464 75.2933C178.464 75.2933 178.402 75.5011 178.423 75.6465C178.049 79.6138 179.565 83.1449 180.334 84.7235C178.194 91.952 180.105 98.9935 184.8 102.047C187.417 103.729 192.631 105.246 196.079 102.442C197.761 101.05 198.862 98.7857 198.924 96.6048C199.319 98.765 200.877 100.717 202.518 101.839C206.423 104.394 211.553 102.649 214.253 100.78C219.156 97.4148 221.025 89.9372 218.719 82.3141C219.55 80.2785 220.755 76.6019 219.633 72.6554C220.028 72.4892 220.423 72.2607 220.88 72.0322C221.877 71.4922 222.707 70.8275 223.414 69.9759C226.509 66.9225 227.132 62.6644 227.215 61.8958C225.782 61.8958 224.348 61.9374 222.936 62.0204C217.286 62.1035 211.699 62.2282 206.049 62.3736C203.556 61.7712 201.168 61.5842 199.111 61.5635C196.39 61.5842 192.734 62.0828 189.266 63.329C187.853 63.4744 186.482 63.6406 185.07 63.786C179.233 64.3468 173.479 64.9077 167.663 65.5308H167.643ZM203.805 77.3705C204.055 76.9551 205.841 73.9017 209.476 73.2162C212.384 72.6969 214.565 73.8601 215.126 74.234C214.814 74.7948 213.589 77.0589 210.722 78.1183C207.254 79.3438 204.221 77.6405 203.785 77.3912L203.805 77.3705ZM193.565 88.2962C194.105 86.1568 203.162 85.6583 203.826 87.7354C204.408 89.3348 199.257 90.8719 198.82 95.0677C198.758 95.0054 198.737 94.86 198.737 94.7976C197.74 90.8303 193.191 89.8956 193.565 88.2962ZM183.138 76.1865C183.657 75.7503 185.693 74.3171 188.559 74.4833C192.319 74.7325 194.479 77.5366 194.77 77.9105C194.375 78.2013 191.571 80.2785 187.978 79.4892C185.007 78.7829 183.512 76.685 183.138 76.1657V76.1865Z" fill="#48061B"/>
<path d="M198.902 96.6249C198.798 96.1472 198.777 95.6486 198.819 95.1709C198.902 95.6486 198.944 96.1472 198.902 96.6249Z" fill="#48061B"/>
<path d="M178.462 75.2715C178.462 75.3753 178.442 75.5 178.421 75.6038C178.379 75.6038 178.317 75.6038 178.275 75.6038L178.462 75.2923V75.2715Z" fill="#48061B"/>
<path d="M165.273 162.637C165.273 162.637 165.086 162.616 164.982 162.596C164.982 162.596 165.169 162.616 165.252 162.637H165.273Z" fill="#48061B"/>
<path d="M165.273 162.637C165.273 162.637 165.086 162.616 164.982 162.596C164.982 162.596 165.169 162.616 165.252 162.637H165.273Z" fill="#48061B"/>
<path d="M459.463 248.01V229.503C459.463 102.964 356.5 0 229.96 0C103.421 0 0.478516 102.964 0.478516 229.503V511.474H89.5253V429.178H33.4842V387.988H89.5461V305.671H33.4842V281.223H426.25V305.671H370.188V387.988H426.25V429.178H370.188V511.474H459.463V248.01ZM228.465 168.539C191.263 168.539 160.979 198.803 160.979 236.025V248.031H33.6919V229.523C33.6919 121.263 121.742 33.2134 229.981 33.2134C338.221 33.2134 426.25 121.263 426.25 229.503V248.01H295.951V236.004C295.951 198.803 265.687 168.518 228.465 168.518" fill="#48061B"/>
</g>
<defs>
<clipPath id="clip0_865_568">
<rect width="228.448" height="512" fill="white" transform="translate(0.478516)"/>
</clipPath>
</defs>
</svg>
